<svg width="48" height="48" viewBox="0 0 48 48" fill="none" xmlns="http://www.w3.org/2000/svg">
<g clip-path="url(#clip0_9131_169160)">
<rect width="48" height="48" rx="12" fill="#A3D562"/>
<rect width="48" height="48" rx="12" fill="url(#paint0_linear_9131_169160)"/>
<path fill-rule="evenodd" clip-rule="evenodd" d="M23.2446 23.2907H20.5751V13.4841H23.2446V23.2907ZM24.7022 24.6886H19.1166V12.0879H24.7022V24.6886ZM35.8443 27.4531H12.1025V26.0609H35.8443V27.4531ZM13.5556 32.8931H20.4182V30.2354H13.5556V32.8931ZM12.1025 35.861H13.5556V34.2836H21.8716V28.8436H12.1025V35.861ZM30.2593 24.6884V13.4841L27.5899 16.2798V24.6884H26.1306V15.7505L29.6691 12.0879H31.7168V14.2582L33.7962 12.0879H35.8448V24.6884H34.3858V13.4852L31.7168 16.2792V24.6884H30.2593ZM24.7468 32.8931H28.7958V30.2354H24.7468V32.8931ZM30.3118 32.8931H34.3916V30.2354H30.3118V32.8931ZM23.2929 34.2836H28.796V35.861H30.3118V34.2836H35.8446V28.8436H23.2929V34.2836ZM16.23 13.4852L13.5616 16.2798V23.2909H16.23V13.4852ZM17.6886 24.6884H16.23H12.1025V15.7505L15.6407 12.0879H17.6886V24.6884Z" fill="white"/>
</g>
<defs>
<linearGradient id="paint0_linear_9131_169160" x1="0" y1="0" x2="48" y2="48" gradientUnits="userSpaceOnUse">
<stop stop-color="#A0D168"/>
<stop offset="1" stop-color="#82BC55"/>
</linearGradient>
<clipPath id="clip0_9131_169160">
<rect width="48" height="48" fill="white"/>
</clipPath>
</defs>
</svg>
