<svg width="14" height="10" viewBox="0 0 14 10" fill="none" xmlns="http://www.w3.org/2000/svg">
<path fill-rule="evenodd" clip-rule="evenodd" d="M9.19093 0.231231C8.88029 -0.0770772 8.37664 -0.0770772 8.06599 0.231231C7.75535 0.53954 7.75535 1.03941 8.06599 1.34772L10.9063 4.16667H1.20257C0.722325 4.16667 0.333008 4.53976 0.333008 5C0.333008 5.46024 0.722325 5.83333 1.20257 5.83333H10.9063L8.06599 8.65228C7.75535 8.96059 7.75535 9.46046 8.06599 9.76877C8.37664 10.0771 8.88029 10.0771 9.19093 9.76877L13.3406 5.65026C13.5373 5.49897 13.6639 5.26741 13.6663 5.00743C13.6663 5.00496 13.6663 5.00248 13.6663 5C13.6663 4.99752 13.6663 4.99504 13.6663 4.99257C13.6639 4.73259 13.5373 4.50103 13.3406 4.34974L9.19093 0.231231Z" fill="#8BC540"/>
</svg>
