<svg width="2336" height="1386" viewBox="0 0 2336 1386" fill="none" xmlns="http://www.w3.org/2000/svg">
<path opacity="0.2" d="M1401.03 1019.38C1350.83 1106.32 1237.27 1145.85 1094.04 1139.31C950.833 1132.76 778.111 1080.14 609.834 982.989C441.557 885.834 309.63 762.559 232.356 641.813C155.068 521.043 132.528 402.934 182.725 315.989C232.923 229.045 346.478 189.511 489.712 196.059C632.919 202.606 805.641 255.221 973.918 352.376C1142.2 449.531 1274.12 572.806 1351.4 693.552C1428.68 814.323 1451.22 932.431 1401.03 1019.38Z" stroke="white"/>
<path opacity="0.2" d="M2231.15 722.875C2245.39 747.53 2247.33 777.773 2238.58 811.403C2229.84 845.035 2210.41 882.02 2181.96 920.099C2125.05 996.257 2032.11 1076.72 1916.6 1143.4C1801.1 1210.09 1684.94 1250.35 1590.54 1261.56C1543.33 1267.16 1501.59 1265.49 1468.09 1256.25C1434.59 1247.01 1409.37 1230.2 1395.14 1205.55C1380.91 1180.89 1378.96 1150.65 1387.71 1117.02C1396.45 1083.39 1415.88 1046.4 1444.33 1008.32C1501.24 932.165 1594.18 851.705 1709.69 785.019C1825.19 718.332 1941.35 678.069 2035.75 666.866C2082.96 661.265 2124.7 662.932 2158.2 672.174C2191.7 681.416 2216.92 698.22 2231.15 722.875Z" stroke="white"/>
<path fill-rule="evenodd" clip-rule="evenodd" d="M1254.99 886.956L1244.81 904.78C1238.63 916.756 1237.19 932.025 1241.64 949.591C1254.52 1000.49 1311.98 1051.4 1369.97 1063.3C1406.11 1070.72 1433.94 1061.24 1446.65 1040.71L1458.61 1021.34C1445.46 1041.04 1417.94 1050 1382.41 1042.71C1324.13 1030.75 1266.39 979.591 1253.44 928.444C1249.4 912.48 1250.2 898.404 1254.99 886.956Z" fill="#225DB8"/>
<path fill-rule="evenodd" clip-rule="evenodd" d="M1254.99 886.956L1244.81 904.78C1238.63 916.756 1237.19 932.025 1241.64 949.591C1254.52 1000.49 1311.98 1051.4 1369.97 1063.3C1406.11 1070.72 1433.94 1061.24 1446.65 1040.71L1458.61 1021.34C1445.46 1041.04 1417.94 1050 1382.41 1042.71C1324.13 1030.75 1266.39 979.591 1253.44 928.444C1249.4 912.48 1250.2 898.404 1254.99 886.956Z" fill="url(#paint0_linear_206_251)"/>
<path d="M1464.48 971.757C1477.43 1022.9 1440.68 1054.67 1382.41 1042.71C1324.13 1030.75 1266.39 979.591 1253.44 928.443C1240.5 877.296 1277.24 845.529 1335.52 857.489C1393.79 869.45 1451.53 920.609 1464.48 971.757Z" fill="#69A4FE"/>
<path d="M1464.48 971.757C1477.43 1022.9 1440.68 1054.67 1382.41 1042.71C1324.13 1030.75 1266.39 979.591 1253.44 928.443C1240.5 877.296 1277.24 845.529 1335.52 857.489C1393.79 869.45 1451.53 920.609 1464.48 971.757Z" fill="url(#paint1_linear_206_251)"/>
<path fill-rule="evenodd" clip-rule="evenodd" d="M1378.8 1019.76C1424.66 1029.17 1452.02 1004.03 1442.36 965.851C1432.69 927.675 1388.91 887.933 1343.05 878.522C1297.19 869.11 1269.83 894.25 1279.5 932.426C1289.16 970.602 1332.95 1010.34 1378.8 1019.76ZM1380.71 1027.29C1429.88 1037.38 1460.89 1010.57 1449.96 967.413C1439.04 924.254 1390.32 881.084 1341.14 870.992C1291.97 860.899 1260.96 887.705 1271.89 930.864C1282.81 974.023 1331.53 1017.19 1380.71 1027.29Z" fill="#225DB8"/>
<path d="M1376.52 932.909L1373.78 922.073L1332.52 913.605L1334.32 947.951L1347.82 950.723C1348.85 949.236 1350.1 948.264 1351.59 947.808C1353.06 947.29 1355.13 947.306 1357.8 947.854C1359.84 948.273 1361.71 948.95 1363.42 949.885C1365.12 950.82 1366.67 951.959 1368.08 953.301C1369.49 954.643 1370.66 956.113 1371.6 957.711C1372.54 959.308 1373.22 960.94 1373.64 962.607C1374.05 964.212 1374.13 965.722 1373.88 967.135C1373.7 968.501 1373.19 969.656 1372.36 970.598C1371.59 971.492 1370.48 972.144 1369.05 972.553C1367.68 972.915 1366.01 972.893 1364.04 972.489C1360.66 971.796 1357.66 970.361 1355.04 968.185C1352.41 965.947 1350.54 963.31 1349.44 960.274L1334.46 957.199C1335.39 960.609 1336.92 963.762 1339.05 966.659C1341.24 969.508 1343.82 972.056 1346.79 974.305C1349.76 976.553 1352.97 978.442 1356.43 979.97C1359.94 981.452 1363.48 982.56 1367.07 983.297C1370.82 984.124 1374.2 984.321 1377.23 983.888C1380.23 983.394 1382.7 982.349 1384.64 980.756C1386.64 979.176 1388.02 977.118 1388.77 974.581C1389.52 971.982 1389.47 969.016 1388.62 965.682C1387.86 962.657 1386.61 959.709 1384.88 956.837C1383.21 953.918 1381.14 951.269 1378.67 948.889C1376.27 946.524 1373.51 944.466 1370.4 942.715C1367.29 940.964 1363.91 939.714 1360.25 938.963C1357.3 938.357 1354.76 938.217 1352.64 938.543C1350.51 938.807 1348.65 939.625 1347.06 940.997L1346.8 940.768L1346.03 926.65L1376.52 932.909Z" fill="#225DB8"/>
<path fill-rule="evenodd" clip-rule="evenodd" d="M1363.98 815.957L1366.43 827.102C1368.75 835.566 1374.23 843.753 1382.98 850.818C1410.05 872.675 1458.15 875.529 1490.41 857.194C1507.63 847.406 1516.86 833.559 1517.61 819.45L1518.05 810.874C1516.6 824.59 1507.27 837.908 1490.49 847.444C1457.63 866.121 1408.63 863.213 1381.06 840.949C1371.86 833.52 1366.21 824.874 1363.98 815.957Z" fill="#D7785A"/>
<path d="M1500.07 773.313C1527.65 795.577 1523.36 828.767 1490.49 847.444C1457.63 866.121 1408.63 863.214 1381.06 840.949C1353.49 818.685 1357.78 785.495 1390.64 766.818C1423.51 748.141 1472.5 751.049 1500.07 773.313Z" fill="#FFB39B"/>
<path d="M1500.07 773.313C1527.65 795.577 1523.36 828.767 1490.49 847.444C1457.63 866.121 1408.63 863.214 1381.06 840.949C1353.49 818.685 1357.78 785.495 1390.64 766.818C1423.51 748.141 1472.5 751.049 1500.07 773.313Z" fill="url(#paint2_linear_206_251)"/>
<path fill-rule="evenodd" clip-rule="evenodd" d="M1480.69 838.708C1507.5 823.472 1510.53 796.748 1488.68 779.105C1466.83 761.462 1427.45 758.841 1400.64 774.078C1373.83 789.314 1370.8 816.038 1392.65 833.681C1414.5 851.324 1453.88 853.945 1480.69 838.708ZM1484.92 842.124C1514.05 825.57 1517.85 796.152 1493.41 776.419C1468.97 756.685 1425.54 754.108 1396.41 770.662C1367.28 787.216 1363.48 816.634 1387.92 836.367C1412.36 856.101 1455.79 858.678 1484.92 842.124Z" fill="#D7785A"/>
<path d="M1468.77 819.372L1426.83 785.509L1418.76 790.095C1420.07 791.547 1420.81 792.965 1420.99 794.35C1421.16 795.735 1420.92 797.08 1420.27 798.386C1419.62 799.633 1418.6 800.842 1417.22 802.015C1415.84 803.128 1414.25 804.169 1412.45 805.138L1418.86 810.314L1431.43 803.172L1458.63 825.134L1468.77 819.372Z" fill="#D7785A"/>
<path fill-rule="evenodd" clip-rule="evenodd" d="M1559.51 1066.68L1563.06 1075.27C1565.63 1080.8 1570.7 1085.55 1578.22 1088.83C1600 1098.34 1634.15 1091.9 1654.49 1074.45C1667.17 1063.57 1671.49 1050.99 1667.67 1040.75L1664.06 1031.1C1667.46 1041.26 1663.04 1053.6 1650.57 1064.29C1630.13 1081.82 1595.82 1088.29 1573.92 1078.74C1567.09 1075.76 1562.28 1071.57 1559.51 1066.68Z" fill="#608E25"/>
<path d="M1647.94 1015.24C1669.84 1024.79 1671.01 1046.75 1650.57 1064.29C1630.13 1081.82 1595.81 1088.29 1573.92 1078.74C1552.03 1069.19 1550.86 1047.23 1571.3 1029.7C1591.74 1012.16 1626.05 1005.69 1647.94 1015.24Z" fill="#A3D562"/>
<path opacity="0.6" d="M1647.94 1015.24C1669.84 1024.79 1671.01 1046.75 1650.57 1064.29C1630.13 1081.82 1595.81 1088.29 1573.92 1078.74C1552.03 1069.19 1550.86 1047.23 1571.3 1029.7C1591.74 1012.16 1626.05 1005.69 1647.94 1015.24Z" fill="url(#paint3_linear_206_251)"/>
<path fill-rule="evenodd" clip-rule="evenodd" d="M1641.36 1059.21C1657.44 1045.41 1656.04 1028.65 1639.7 1021.52C1623.36 1014.39 1596.99 1019.04 1580.91 1032.84C1564.83 1046.63 1566.23 1063.39 1582.57 1070.52C1598.91 1077.65 1625.27 1073.01 1641.36 1059.21ZM1644.58 1060.62C1661.83 1045.82 1660.84 1027.29 1642.36 1019.23C1623.89 1011.17 1594.93 1016.63 1577.69 1031.43C1560.44 1046.23 1561.43 1064.75 1579.9 1072.81C1598.38 1080.87 1627.33 1075.41 1644.58 1060.62Z" fill="#608E25"/>
<path fill-rule="evenodd" clip-rule="evenodd" d="M1148.56 990.323L1145.82 993.331C1144.1 995.38 1143.16 998.272 1143.26 1001.86C1143.54 1012.27 1152.45 1024.62 1163.16 1029.44C1169.83 1032.44 1175.62 1031.81 1178.98 1028.39L1182.13 1025.16C1178.73 1028.4 1173.02 1028.94 1166.46 1025.99C1155.7 1021.15 1146.75 1008.74 1146.46 998.284C1146.37 995.02 1147.14 992.331 1148.56 990.323Z" fill="#D7785A"/>
<path d="M1185.42 1015.82C1185.7 1026.28 1177.21 1030.83 1166.46 1025.99C1155.7 1021.15 1146.75 1008.74 1146.46 998.284C1146.17 987.825 1154.66 983.272 1165.42 988.115C1176.18 992.957 1185.13 1005.36 1185.42 1015.82Z" fill="#FFB39B"/>
<path fill-rule="evenodd" clip-rule="evenodd" d="M1166.76 1021.39C1175.22 1025.2 1181.61 1021.52 1181.39 1013.72C1181.18 1005.91 1174.43 996.322 1165.96 992.511C1157.5 988.701 1151.11 992.378 1151.33 1000.18C1151.54 1007.99 1158.29 1017.58 1166.76 1021.39ZM1166.8 1022.93C1175.88 1027.02 1183.04 1023.18 1182.8 1014.35C1182.55 1005.52 1175 995.058 1165.92 990.971C1156.84 986.885 1149.68 990.727 1149.92 999.552C1150.16 1008.38 1157.72 1018.85 1166.8 1022.93Z" fill="#D7785A"/>
<rect x="1265" y="1148.73" width="150.887" height="12.1353" rx="0.5" transform="rotate(-15 1265 1148.73)" fill="#A3D562"/>
<rect x="1347.16" y="1192.69" width="90" height="6" rx="0.5" transform="rotate(-35 1347.16 1192.69)" fill="#A3D562"/>
<rect x="1422.67" y="1170.05" width="40" height="6" rx="0.5" transform="rotate(-50 1422.67 1170.05)" fill="#A3D562"/>
<rect x="1509.07" y="923" width="60.89" height="6" rx="0.5" transform="rotate(30 1509.07 923)" fill="#A3D562"/>
<rect opacity="0.1" x="1225" y="1069.76" width="60.89" height="6" rx="0.5" transform="rotate(-15 1225 1069.76)" fill="white"/>
<rect opacity="0.1" x="1210.12" y="1036.14" width="40" height="3" rx="0.5" transform="rotate(5 1210.12 1036.14)" fill="white"/>
<rect x="1176.07" y="734" width="150.887" height="6" rx="0.5" transform="rotate(30 1176.07 734)" fill="#A3D562"/>
<defs>
<linearGradient id="paint0_linear_206_251" x1="1348.83" y1="886.956" x2="1348.83" y2="1065.81" gradientUnits="userSpaceOnUse">
<stop stop-color="#2078FF" stop-opacity="0"/>
<stop offset="0.520834" stop-color="#2094FF"/>
<stop offset="1" stop-color="#2078FF" stop-opacity="0"/>
</linearGradient>
<linearGradient id="paint1_linear_206_251" x1="1335.52" y1="857.489" x2="1300.93" y2="1025.99" gradientUnits="userSpaceOnUse">
<stop stop-color="#38CFFF"/>
<stop offset="1" stop-color="#38CFFF" stop-opacity="0"/>
</linearGradient>
<linearGradient id="paint2_linear_206_251" x1="1390.64" y1="766.818" x2="1449.65" y2="870.655" gradientUnits="userSpaceOnUse">
<stop stop-color="#FFD79B"/>
<stop offset="1" stop-color="#FFD79B" stop-opacity="0"/>
</linearGradient>
<linearGradient id="paint3_linear_206_251" x1="1571.3" y1="1029.7" x2="1622" y2="1088.8" gradientUnits="userSpaceOnUse">
<stop stop-color="#FFED48"/>
<stop offset="1" stop-color="#FFED48" stop-opacity="0"/>
</linearGradient>
</defs>
</svg>
