<svg width="25" height="32" viewBox="0 0 25 32" fill="none" xmlns="http://www.w3.org/2000/svg">
<g clip-path="url(#clip0_1987_15346)">
<path d="M24.1533 5.60942C24.6932 6.11372 24.9997 6.8194 24.9997 7.5582V29.3333C24.9997 30.8061 23.8058 32 22.333 32H2.99967C1.52691 32 0.333008 30.8061 0.333008 29.3333L0.333009 2.66667C0.333009 1.19391 1.52692 -6.43763e-08 2.99968 0L17.0961 6.16175e-07C17.7719 6.45715e-07 18.4225 0.256586 18.9164 0.717888L24.1533 5.60942Z" fill="url(#paint0_linear_1987_15346)"/>
<path d="M16.7997 14.4714C17.0669 14.2111 17.0669 13.7889 16.7997 13.5286C16.5325 13.2682 16.0992 13.2682 15.832 13.5286L13.3504 15.9465L13.3504 8.66667C13.3504 8.29848 13.044 8 12.6661 8C12.2882 8 11.9819 8.29848 11.9819 8.66667L11.9819 15.9456L9.50109 13.5286C9.23387 13.2682 8.80063 13.2682 8.53342 13.5286C8.2662 13.7889 8.2662 14.2111 8.53342 14.4714L12.1678 18.0124C12.2926 18.1416 12.4697 18.2222 12.6661 18.2222C12.6663 18.2222 12.666 18.2222 12.6661 18.2222C12.6699 18.2222 12.6741 18.2222 12.6779 18.2221C12.8492 18.2194 13.0197 18.1543 13.1504 18.027L16.7997 14.4714Z" fill="white"/>
</g>
<defs>
<linearGradient id="paint0_linear_1987_15346" x1="-9.33366" y1="46" x2="37.0943" y2="20.9721" gradientUnits="userSpaceOnUse">
<stop stop-color="#FED141" stop-opacity="0"/>
<stop offset="0.268523" stop-color="#FED141" stop-opacity="0.1"/>
<stop offset="1" stop-color="#FB9C0F"/>
</linearGradient>
<clipPath id="clip0_1987_15346">
<rect width="24.6667" height="32" fill="white" transform="translate(0.333008)"/>
</clipPath>
</defs>
</svg>
