<svg width="12" height="10" viewBox="0 0 12 10" fill="none" xmlns="http://www.w3.org/2000/svg">
<path fill-rule="evenodd" clip-rule="evenodd" d="M7.36056 0.973094C7.10021 0.712745 6.6781 0.712745 6.41776 0.973094C6.15741 1.23344 6.15741 1.65555 6.41776 1.9159L8.83524 4.33338H1.55583C1.18764 4.33338 0.88916 4.63186 0.88916 5.00005C0.88916 5.36824 1.18764 5.66672 1.55583 5.66672H8.83524L6.41776 8.08421C6.15741 8.34455 6.15741 8.76667 6.41776 9.02701C6.6781 9.28736 7.10021 9.28736 7.36056 9.02701L10.9161 5.47146C11.0463 5.34128 11.1114 5.17067 11.1114 5.00005C11.1114 4.90894 11.0931 4.8221 11.06 4.74299C11.029 4.6687 10.984 4.59889 10.9249 4.5376C10.9217 4.53423 10.9184 4.53089 10.9151 4.52759L7.36056 0.973094Z" fill="#1C1B28"/>
</svg>
