<svg preserveAspectRatio="none" width="276" height="52" viewBox="0 0 276 52" fill="none" xmlns="http://www.w3.org/2000/svg">
<g clip-path="url(#clip0_979_5286)">
<mask id="mask0_979_5286" style="mask-type:luminance" maskUnits="userSpaceOnUse" x="0" y="0" width="276" height="52">
<path d="M276 0H0V52H276V0Z" fill="white"/>
</mask>
<g mask="url(#mask0_979_5286)">
<path d="M105.285 1.35059H29.5029L26.2422 16.0997H102.182L105.285 1.35059Z" fill="#EEEEEE"/>
<path d="M32.657 13.0663C32.5517 13.4774 32.2888 13.7344 31.8681 13.6829C31.4474 13.6829 31.2896 13.4774 31.3949 13.0148L33.1302 5.15208C33.1829 4.94653 33.288 4.74096 33.3933 4.63819C33.5511 4.53539 33.7087 4.43262 33.8665 4.43262H36.7063C37.9686 4.43262 38.8625 4.63819 39.3885 4.94653C39.8617 5.30627 40.072 5.87155 39.8617 6.64242C39.7039 7.41322 39.2832 8.02986 38.7047 8.4412C38.1264 8.8523 37.3376 9.05785 36.3909 9.05785H33.4983L32.657 13.0663ZM35.9702 7.92709C36.9694 7.92709 37.653 7.87583 37.9686 7.72154C38.284 7.56751 38.4943 7.25911 38.5996 6.79658C38.6521 6.48824 38.6522 6.2313 38.5471 6.07712C38.4418 5.92296 38.2315 5.82016 37.9158 5.76877C37.6004 5.71739 37.1272 5.666 36.4434 5.666H34.2347L33.7087 7.92709H35.9702Z" fill="black"/>
<path d="M32.657 13.0663C32.5517 13.4774 32.2888 13.7344 31.8681 13.6829C31.4474 13.6829 31.2896 13.4774 31.3949 13.0148L33.1302 5.15208C33.1829 4.94653 33.288 4.74096 33.3933 4.63819C33.5511 4.53539 33.7087 4.43262 33.8665 4.43262H36.7063C37.9686 4.43262 38.8625 4.63819 39.3885 4.94653C39.8617 5.30627 40.072 5.87155 39.8617 6.64242C39.7039 7.41322 39.2832 8.02986 38.7047 8.4412C38.1264 8.8523 37.3376 9.05785 36.3909 9.05785H33.4983L32.657 13.0663ZM35.9702 7.92709C36.9694 7.92709 37.653 7.87583 37.9686 7.72154C38.284 7.56751 38.4943 7.25911 38.5996 6.79658C38.6521 6.48824 38.6522 6.2313 38.5471 6.07712C38.4418 5.92296 38.2315 5.82016 37.9158 5.76877C37.6004 5.71739 37.1272 5.666 36.4434 5.666H34.2347L33.7087 7.92709H35.9702Z" fill="black"/>
<path d="M31.9213 13.8372C31.8688 13.8372 31.8688 13.8372 31.9213 13.8372C31.6584 13.8372 31.5006 13.7857 31.3953 13.6316C31.2902 13.4774 31.2375 13.3233 31.2902 13.0663L33.0255 5.20347C33.0783 4.94653 33.1833 4.74096 33.3412 4.63819C33.499 4.484 33.6568 4.43262 33.9197 4.43262H36.7595C38.0743 4.43262 38.9682 4.63819 39.4942 4.99792C40.0202 5.35765 40.2305 5.97434 40.0202 6.79658C39.8623 7.61877 39.4417 8.23541 38.8106 8.64675C38.1793 9.05785 37.3905 9.26339 36.4441 9.26339H33.604L32.7627 13.1175C32.6576 13.5801 32.342 13.8372 31.9213 13.8372ZM33.8672 4.5868C33.7093 4.5868 33.604 4.63819 33.4465 4.74096C33.3412 4.84374 33.2359 4.99792 33.1833 5.20347L31.4478 13.0663C31.3953 13.2718 31.3953 13.3746 31.5006 13.4774C31.5531 13.5289 31.6584 13.5801 31.816 13.5801C32.1841 13.5801 32.3945 13.4261 32.4998 13.0148L33.3937 8.95507H36.3913C37.338 8.95507 38.0743 8.74952 38.6528 8.38969C39.2313 7.9786 39.5995 7.41322 39.7571 6.64242C39.9149 5.92296 39.7571 5.40904 39.3364 5.04931C38.8631 4.68958 37.969 4.53539 36.7595 4.53539L33.8672 4.5868ZM36.1284 8.02986C36.0759 8.02986 36.0234 8.02986 35.9706 8.02986H33.6568L34.1825 5.51181H36.4966C37.1801 5.51181 37.6536 5.56323 37.969 5.61461C38.3372 5.666 38.5475 5.82016 38.6528 5.97434C38.7579 6.17989 38.7579 6.43685 38.7053 6.74519C38.6 7.25911 38.3372 7.56751 38.0218 7.72154C37.7061 7.9786 37.0751 8.02986 36.1284 8.02986ZM33.9197 7.82432H35.9706C36.9698 7.82432 37.6008 7.77305 37.9165 7.61877C38.2321 7.516 38.3897 7.20773 38.495 6.79658C38.5475 6.48824 38.5475 6.28269 38.495 6.17989C38.4425 6.02573 38.2321 5.97434 37.969 5.92296C37.6536 5.87155 37.1801 5.82016 36.4966 5.82016H34.3929L33.9197 7.82432Z" fill="white"/>
<path d="M48.1204 10.3419C47.9625 11.0101 47.6997 11.6267 47.2265 12.1406C46.8055 12.6544 46.2798 13.0655 45.596 13.3226C44.9649 13.5796 44.2289 13.7337 43.44 13.7337C42.6512 13.7337 42.0199 13.5796 41.4941 13.3226C40.9681 13.0655 40.6 12.6544 40.3896 12.1406C40.1793 11.6267 40.1793 11.0101 40.3371 10.3419L40.8631 7.8751C41.0207 7.20712 41.2838 6.59043 41.757 6.07651C42.1777 5.56262 42.7037 5.15148 43.3872 4.89454C44.0183 4.63758 44.7546 4.4834 45.5435 4.4834C46.3323 4.4834 46.9633 4.63758 47.4893 4.89454C48.0153 5.15148 48.3832 5.56262 48.5936 6.07651C48.8042 6.59043 48.8042 7.20712 48.6463 7.8751L48.1204 10.3419ZM45.2806 5.61401C44.4392 5.61401 43.7554 5.81955 43.2294 6.17931C42.7037 6.59043 42.3355 7.15571 42.1777 7.8751L41.652 10.2391C41.4941 11.0101 41.5992 11.5752 41.9148 11.935C42.283 12.3461 42.8615 12.5004 43.7029 12.5517C44.5443 12.5517 45.2281 12.3461 45.7538 11.9865C46.2798 11.5752 46.648 11.0101 46.8058 10.2906L47.3315 7.92661C47.4893 7.20712 47.384 6.64182 47.0686 6.2307C46.753 5.81958 46.122 5.61401 45.2806 5.61401Z" fill="black"/>
<path d="M48.1204 10.3419C47.9625 11.0101 47.6997 11.6267 47.2265 12.1406C46.8055 12.6544 46.2798 13.0655 45.596 13.3226C44.9649 13.5796 44.2289 13.7337 43.44 13.7337C42.6512 13.7337 42.0199 13.5796 41.4941 13.3226C40.9681 13.0655 40.6 12.6544 40.3896 12.1406C40.1793 11.6267 40.1793 11.0101 40.3371 10.3419L40.8631 7.8751C41.0207 7.20712 41.2838 6.59043 41.757 6.07651C42.1777 5.56262 42.7037 5.15148 43.3872 4.89454C44.0183 4.63758 44.7546 4.4834 45.5435 4.4834C46.3323 4.4834 46.9633 4.63758 47.4893 4.89454C48.0153 5.15148 48.3832 5.56262 48.5936 6.07651C48.8042 6.59043 48.8042 7.20712 48.6463 7.8751L48.1204 10.3419ZM45.2806 5.61401C44.4392 5.61401 43.7554 5.81955 43.2294 6.17931C42.7037 6.59043 42.3355 7.15571 42.1777 7.8751L41.652 10.2391C41.4941 11.0101 41.5992 11.5752 41.9148 11.935C42.283 12.3461 42.8615 12.5004 43.7029 12.5517C44.5443 12.5517 45.2281 12.3461 45.7538 11.9865C46.2798 11.5752 46.648 11.0101 46.8058 10.2906L47.3315 7.92661C47.4893 7.20712 47.384 6.64182 47.0686 6.2307C46.753 5.81958 46.122 5.61401 45.2806 5.61401Z" fill="black"/>
<path d="M43.5429 13.8892H43.4904C42.7015 13.8892 42.0177 13.7349 41.492 13.4266C40.966 13.1183 40.5453 12.7072 40.3349 12.1933C40.1246 11.6792 40.1246 11.0113 40.2824 10.3431L40.8082 7.87631C40.966 7.15692 41.2816 6.54023 41.7023 6.02634C42.123 5.51242 42.7015 5.1013 43.3325 4.79295C43.9636 4.48461 44.7524 4.38184 45.4888 4.38184C46.2776 4.38184 46.9612 4.536 47.4872 4.84434C48.0132 5.15269 48.4338 5.56381 48.6442 6.07772C48.8545 6.59164 48.8545 7.25972 48.6967 7.92782L48.1707 10.3946C48.0131 11.114 47.6975 11.7307 47.2768 12.2446C46.8561 12.7584 46.2776 13.1695 45.6466 13.4781C45.0153 13.7349 44.3317 13.8892 43.5429 13.8892ZM45.4888 4.58738C44.7524 4.58738 44.0689 4.74157 43.4378 4.99853C42.8066 5.25546 42.2808 5.6666 41.8601 6.1805C41.4392 6.69441 41.1763 7.25972 41.0185 7.92782L40.4928 10.3946C40.335 11.0625 40.3875 11.6279 40.5453 12.1418C40.7556 12.6556 41.0713 13.0155 41.597 13.2723C42.123 13.5293 42.754 13.6836 43.4904 13.6836C44.2792 13.6836 44.9628 13.5293 45.5938 13.2723C46.2251 13.0155 46.7508 12.6044 47.1715 12.0905C47.5922 11.5764 47.8553 11.0113 48.0132 10.3431L48.5389 7.87631C48.6967 7.20831 48.6442 6.64303 48.4864 6.12911C48.276 5.61522 47.9604 5.25546 47.4346 4.99853C46.9087 4.74157 46.2776 4.58738 45.5413 4.58738H45.4888ZM43.8058 12.7072C43.7532 12.7072 43.7532 12.7072 43.8058 12.7072C42.8593 12.7072 42.2281 12.5016 41.8601 12.0905C41.492 11.6792 41.3867 11.0625 41.5445 10.2919L42.0705 7.92782C42.2281 7.15692 42.5962 6.54023 43.1747 6.1805C43.7007 5.76938 44.437 5.56381 45.2784 5.56381H45.3309C46.2251 5.56381 46.8561 5.76938 47.2243 6.1805C47.5922 6.64303 47.6975 7.25972 47.5397 7.97908L47.014 10.3431C46.8561 11.114 46.488 11.7307 45.9095 12.0905C45.3309 12.5016 44.6474 12.7072 43.8058 12.7072ZM45.2259 5.76938C44.437 5.76938 43.7532 5.97495 43.28 6.33468C42.754 6.69441 42.4384 7.25972 42.2808 7.97908L41.7548 10.3431C41.597 11.0625 41.7023 11.5764 42.0177 11.9362C42.3333 12.2961 42.9119 12.5016 43.7532 12.5016C44.5421 12.5016 45.2259 12.2961 45.7516 11.9362C46.2776 11.5764 46.593 11.0113 46.7508 10.2919L47.2768 7.92782C47.4346 7.25972 47.3293 6.69441 47.014 6.33468C46.6983 5.92354 46.1198 5.76938 45.2259 5.76938C45.2784 5.76938 45.2784 5.76938 45.2259 5.76938Z" fill="white"/>
<path d="M53.1154 13.6815C52.1162 13.6815 51.3799 13.5787 50.8539 13.4246C50.3282 13.2704 50.0125 12.962 49.8547 12.6022C49.6969 12.2426 49.6969 11.6772 49.8547 11.0091L50.6961 7.25764C50.8539 6.58956 51.0642 6.07567 51.3799 5.71594C51.6953 5.35621 52.1162 5.04786 52.6945 4.89368C53.273 4.73952 53.9568 4.63672 54.8507 4.63672H57.2173C57.7958 4.63672 58.2165 4.7909 58.4268 5.04786C58.6371 5.3048 58.6899 5.76733 58.5846 6.33263C58.4796 6.84652 58.2165 7.10348 57.7958 7.10348C57.5854 7.10348 57.4804 7.05209 57.3751 6.89791C57.2698 6.74375 57.2698 6.58956 57.3225 6.33263C57.3751 6.07567 57.3751 5.92149 57.3225 5.8701C57.2698 5.76733 57.1122 5.76733 56.9019 5.76733H54.6403C53.9568 5.76733 53.4308 5.81871 53.1154 5.8701C52.7998 5.92149 52.5369 6.07567 52.3791 6.28122C52.2213 6.48679 52.0634 6.79514 51.9584 7.25764L51.1168 10.9578C51.0117 11.4202 51.0117 11.7285 51.0642 11.9343C51.1695 12.1399 51.3799 12.2939 51.6953 12.3454C52.0634 12.3967 52.5894 12.4482 53.3783 12.4482H55.3767C55.587 12.4482 55.7448 12.3967 55.8499 12.3454C55.9552 12.2426 56.0077 12.0883 56.0602 11.8828C56.113 11.6257 56.2181 11.4717 56.3234 11.3174C56.4809 11.1634 56.6387 11.1119 56.8491 11.1119C57.2698 11.1119 57.4276 11.3689 57.3225 11.9343C57.2173 12.4994 56.9544 12.962 56.5862 13.2189C56.2181 13.4759 55.7974 13.6302 55.1663 13.6302L53.1154 13.6815Z" fill="black"/>
<path d="M53.1154 13.6815C52.1162 13.6815 51.3799 13.5787 50.8539 13.4246C50.3282 13.2704 50.0125 12.962 49.8547 12.6022C49.6969 12.2426 49.6969 11.6772 49.8547 11.0091L50.6961 7.25764C50.8539 6.58956 51.0642 6.07567 51.3799 5.71594C51.6953 5.35621 52.1162 5.04786 52.6945 4.89368C53.273 4.73952 53.9568 4.63672 54.8507 4.63672H57.2173C57.7958 4.63672 58.2165 4.7909 58.4268 5.04786C58.6371 5.3048 58.6899 5.76733 58.5846 6.33263C58.4796 6.84652 58.2165 7.10348 57.7958 7.10348C57.5854 7.10348 57.4804 7.05209 57.3751 6.89791C57.2698 6.74375 57.2698 6.58956 57.3225 6.33263C57.3751 6.07567 57.3751 5.92149 57.3225 5.8701C57.2698 5.76733 57.1122 5.76733 56.9019 5.76733H54.6403C53.9568 5.76733 53.4308 5.81871 53.1154 5.8701C52.7998 5.92149 52.5369 6.07567 52.3791 6.28122C52.2213 6.48679 52.0634 6.79514 51.9584 7.25764L51.1168 10.9578C51.0117 11.4202 51.0117 11.7285 51.0642 11.9343C51.1695 12.1399 51.3799 12.2939 51.6953 12.3454C52.0634 12.3967 52.5894 12.4482 53.3783 12.4482H55.3767C55.587 12.4482 55.7448 12.3967 55.8499 12.3454C55.9552 12.2426 56.0077 12.0883 56.0602 11.8828C56.113 11.6257 56.2181 11.4717 56.3234 11.3174C56.4809 11.1634 56.6387 11.1119 56.8491 11.1119C57.2698 11.1119 57.4276 11.3689 57.3225 11.9343C57.2173 12.4994 56.9544 12.962 56.5862 13.2189C56.2181 13.4759 55.7974 13.6302 55.1663 13.6302L53.1154 13.6815Z" fill="black"/>
<path d="M55.2202 13.7844H53.0639C52.0648 13.7844 51.3284 13.6817 50.8027 13.5276C50.2767 13.3733 49.9085 13.065 49.6982 12.6539C49.5404 12.2428 49.5404 11.6775 49.6457 11.0093L50.487 7.25788C50.6449 6.5898 50.8552 6.02449 51.2234 5.66476C51.5388 5.25364 52.0122 4.99669 52.5907 4.79114C53.1692 4.63695 53.9053 4.53418 54.7995 4.53418H57.166C57.7971 4.53418 58.2178 4.68834 58.4806 4.99669C58.7437 5.30503 58.7963 5.76756 58.6385 6.38423C58.4806 7.10372 58.0599 7.25788 57.7446 7.25788C57.4814 7.25788 57.3239 7.1551 57.2186 7.00092C57.1133 6.84676 57.1133 6.64119 57.166 6.38423C57.2186 6.12729 57.166 6.02449 57.166 6.02449C57.166 6.02449 57.0607 5.97311 56.7979 5.92172H54.5366C53.8528 5.92172 53.3268 5.97311 53.0114 6.02449C52.6958 6.07588 52.4854 6.23007 52.3276 6.38423C52.17 6.5898 52.0647 6.89814 51.9597 7.30926L51.1181 11.0093C51.013 11.4204 51.013 11.729 51.0655 11.9345C51.1181 12.0886 51.3284 12.2428 51.6441 12.2941C51.9597 12.3456 52.538 12.3969 53.2743 12.3969H55.2727C55.483 12.3969 55.6409 12.3456 55.6934 12.2941C55.7462 12.2428 55.7987 12.1401 55.9037 11.883C55.9565 11.6262 56.0615 11.4204 56.2194 11.2664C56.3772 11.1121 56.5875 11.0608 56.7979 11.0608C57.0082 11.0608 57.166 11.1121 57.2711 11.2664C57.3764 11.4204 57.4289 11.6775 57.3764 11.9858C57.2186 12.6024 57.0082 13.0135 56.6401 13.3221C56.3247 13.6304 55.8512 13.7844 55.2202 13.7844ZM54.6942 4.73973C53.8528 4.73973 53.1692 4.84253 52.6433 4.99669C52.1173 5.15087 51.6966 5.4078 51.3812 5.76756C51.0655 6.12729 50.8552 6.64119 50.6974 7.30926L49.856 11.0608C49.6982 11.729 49.6982 12.1913 49.856 12.5512C50.0138 12.9107 50.3292 13.1678 50.8027 13.3221C51.3284 13.4761 52.0647 13.5789 53.0114 13.5789H55.1149C55.6934 13.5789 56.1141 13.4249 56.4297 13.1678C56.7454 12.9107 56.9557 12.4996 57.1133 11.9345C57.166 11.6775 57.166 11.4719 57.0607 11.3691C57.0082 11.3176 56.9029 11.2664 56.7454 11.2664C56.5875 11.2664 56.4297 11.3176 56.3247 11.4204C56.2194 11.5232 56.1141 11.6775 56.0615 11.9345C56.009 12.1913 55.9037 12.3456 55.7987 12.4484C55.6934 12.5512 55.483 12.6024 55.2727 12.6024H53.2743C52.4854 12.6024 51.9069 12.5512 51.5915 12.4996C51.2234 12.3969 50.9605 12.2428 50.8552 11.9858C50.7499 11.7802 50.7499 11.4204 50.8552 10.958L51.6966 7.25788C51.8019 6.79537 51.9597 6.48702 52.1173 6.23007C52.2751 6.02449 52.5907 5.87033 52.9589 5.76756C53.3268 5.71615 53.8528 5.66476 54.5366 5.66476H56.7979C57.0607 5.66476 57.2186 5.71615 57.3239 5.81895C57.4289 5.92172 57.4289 6.12729 57.3764 6.38423C57.3239 6.5898 57.3239 6.74396 57.4289 6.84676C57.4814 6.94953 57.5867 7.00092 57.7446 7.00092C58.1127 7.00092 58.3231 6.79537 58.4281 6.28145C58.5334 5.71615 58.5334 5.30503 58.3231 5.04807C58.1127 4.79114 57.7446 4.68834 57.2186 4.68834H54.852C54.7995 4.73973 54.747 4.73973 54.6942 4.73973Z" fill="white"/>
<path d="M62.5312 13.7362C61.532 13.7362 60.7956 13.6334 60.2699 13.4792C59.7439 13.3251 59.4283 13.0168 59.2707 12.657C59.1129 12.2971 59.1129 11.732 59.2707 11.0639L60.1121 7.31233C60.2699 6.64425 60.4803 6.13033 60.7956 5.7706C61.1113 5.41087 61.532 5.10253 62.1105 4.94836C62.689 4.79418 63.3726 4.69141 64.2667 4.69141H66.6333C67.2118 4.69141 67.6325 4.84557 67.8428 5.10253C68.0532 5.35948 68.1057 5.82199 68.0006 6.38729C67.8953 6.90121 67.6325 7.15814 67.2118 7.15814C67.0014 7.15814 66.8961 7.10676 66.7908 6.9526C66.6858 6.79841 66.6858 6.64425 66.7383 6.38729C66.7908 6.13033 66.7908 5.97617 66.7383 5.92479C66.6858 5.82199 66.528 5.82199 66.3176 5.82199H64.0564C63.3726 5.82199 62.8468 5.8734 62.5312 5.92479C62.2155 5.97617 61.9527 6.13033 61.7948 6.33591C61.6373 6.54148 61.4795 6.84982 61.3742 7.31233L60.5328 11.0123C60.4275 11.475 60.4275 11.7833 60.4803 11.9888C60.5853 12.1944 60.7956 12.3487 61.1113 12.3999C61.4795 12.4514 62.0052 12.5027 62.794 12.5027H64.7924C65.0028 12.5027 65.1606 12.4514 65.2659 12.3999C65.371 12.2971 65.4237 12.1431 65.4762 11.9376C65.5288 11.6805 65.6341 11.5265 65.7391 11.3722C65.8969 11.2179 66.0548 11.1666 66.2651 11.1666C66.6858 11.1666 66.8436 11.4237 66.7383 11.9888C66.6333 12.5542 66.3702 13.0168 66.0022 13.2736C65.6341 13.5307 65.2134 13.6847 64.5821 13.6847L62.5312 13.7362Z" fill="black"/>
<path d="M62.5312 13.7362C61.532 13.7362 60.7956 13.6334 60.2699 13.4792C59.7439 13.3251 59.4283 13.0168 59.2707 12.657C59.1129 12.2971 59.1129 11.732 59.2707 11.0639L60.1121 7.31233C60.2699 6.64425 60.4803 6.13033 60.7956 5.7706C61.1113 5.41087 61.532 5.10253 62.1105 4.94836C62.689 4.79418 63.3726 4.69141 64.2667 4.69141H66.6333C67.2118 4.69141 67.6325 4.84557 67.8428 5.10253C68.0532 5.35948 68.1057 5.82199 68.0006 6.38729C67.8953 6.90121 67.6325 7.15814 67.2118 7.15814C67.0014 7.15814 66.8961 7.10676 66.7908 6.9526C66.6858 6.79841 66.6858 6.64425 66.7383 6.38729C66.7908 6.13033 66.7908 5.97617 66.7383 5.92479C66.6858 5.82199 66.528 5.82199 66.3176 5.82199H64.0564C63.3726 5.82199 62.8468 5.8734 62.5312 5.92479C62.2155 5.97617 61.9527 6.13033 61.7948 6.33591C61.6373 6.54148 61.4795 6.84982 61.3742 7.31233L60.5328 11.0123C60.4275 11.475 60.4275 11.7833 60.4803 11.9888C60.5853 12.1944 60.7956 12.3487 61.1113 12.3999C61.4795 12.4514 62.0052 12.5027 62.794 12.5027H64.7924C65.0028 12.5027 65.1606 12.4514 65.2659 12.3999C65.371 12.2971 65.4237 12.1431 65.4762 11.9376C65.5288 11.6805 65.6341 11.5265 65.7391 11.3722C65.8969 11.2179 66.0548 11.1666 66.2651 11.1666C66.6858 11.1666 66.8436 11.4237 66.7383 11.9888C66.6333 12.5542 66.3702 13.0168 66.0022 13.2736C65.6341 13.5307 65.2134 13.6847 64.5821 13.6847L62.5312 13.7362Z" fill="black"/>
<path d="M64.6868 13.8362C64.6342 13.8362 64.6342 13.8362 64.6868 13.8362H62.5308C61.5313 13.8362 60.7953 13.7334 60.2693 13.5794C59.7433 13.4251 59.3754 13.1168 59.165 12.7057C59.0072 12.2946 59.0072 11.7292 59.1123 11.0611L59.9539 7.30963C60.1115 6.64156 60.3218 6.07628 60.69 5.71655C61.0056 5.3054 61.4788 5.04847 62.0573 4.8429C62.6358 4.68871 63.3722 4.58594 64.2661 4.58594H66.6326C67.2637 4.58594 67.6844 4.74012 67.9475 5.04844C68.2103 5.35679 68.2629 5.81932 68.1053 6.43601C67.9475 7.15547 67.5268 7.30963 67.2111 7.30963C66.9483 7.30963 66.7905 7.20686 66.6852 7.0527C66.5801 6.89852 66.5801 6.69294 66.6326 6.43601C66.6852 6.17905 66.6326 6.07628 66.6326 6.07628C66.6326 6.07628 66.5276 6.02487 66.2645 6.02487H64.0032C63.3194 6.02487 62.7937 6.07628 62.478 6.12766C62.1626 6.17905 61.9523 6.33321 61.7945 6.4874C61.6366 6.69297 61.5313 7.00129 61.4263 7.41251L60.5849 11.1126C60.4796 11.5237 60.4796 11.832 60.5321 12.0376C60.5849 12.1918 60.7953 12.3459 61.1107 12.3974C61.4263 12.4487 62.0048 12.5002 62.7411 12.5002H64.7395C65.0024 12.5002 65.1075 12.4487 65.1602 12.3974C65.2127 12.3459 65.2653 12.2431 65.3706 11.9863C65.4231 11.7292 65.5284 11.5237 65.686 11.3694C65.8438 11.2154 66.0541 11.1639 66.2645 11.1639C66.4748 11.1639 66.6326 11.2154 66.7379 11.3694C66.843 11.5237 66.8955 11.7805 66.843 12.0891C66.6852 12.7057 66.4748 13.1168 66.1069 13.4251C65.7387 13.6822 65.2653 13.8362 64.6868 13.8362ZM64.161 4.74012C63.3196 4.74012 62.6358 4.8429 62.1099 4.99706C61.5841 5.15124 61.1634 5.4082 60.8478 5.76793C60.5321 6.12766 60.3218 6.64156 60.1642 7.30963L59.3226 11.0611C59.165 11.7292 59.165 12.1918 59.3226 12.5514C59.4804 12.9113 59.7961 13.1681 60.2693 13.3224C60.7953 13.4766 61.5313 13.5794 62.478 13.5794H64.5817C65.1602 13.5794 65.5809 13.4251 65.8963 13.1681C66.2119 12.9113 66.4223 12.5002 66.5801 11.9348C66.6326 11.6777 66.6326 11.4722 66.5276 11.3694C66.4748 11.3181 66.3698 11.2666 66.2119 11.2666C66.0541 11.2666 65.8963 11.3181 65.7913 11.4209C65.686 11.5237 65.5809 11.6777 65.5284 11.9348C65.4756 12.1918 65.3706 12.3459 65.2653 12.4487C65.1602 12.5514 64.9499 12.6029 64.7395 12.6029H62.7411C61.9523 12.6029 61.3738 12.5514 61.0581 12.5002C60.69 12.3974 60.4271 12.2431 60.3218 11.9863C60.2167 11.7805 60.2167 11.4209 60.3218 10.9583L61.1634 7.25825C61.2685 6.79574 61.4263 6.4874 61.5841 6.23044C61.7419 6.02487 62.0573 5.81932 62.4255 5.76793C62.7937 5.71655 63.2669 5.66513 64.0032 5.66513H66.2645C66.5276 5.66513 66.6852 5.71652 66.7905 5.81932C66.8957 5.92209 66.8955 6.12766 66.843 6.38462C66.7905 6.59017 66.7905 6.74435 66.8958 6.84713C66.9483 6.9499 67.0533 7.00129 67.2111 7.00129C67.5793 7.00129 67.7897 6.79574 67.895 6.28182C68 5.71655 68 5.3054 67.7897 5.04844C67.5793 4.79151 67.2111 4.68871 66.6852 4.68871H64.3188C64.2135 4.74012 64.2135 4.74012 64.161 4.74012Z" fill="white"/>
<path d="M68.4182 13.1681L70.1538 5.25402C70.2588 4.79151 70.5219 4.58594 70.9426 4.58594C71.3633 4.58594 71.5211 4.8429 71.4158 5.3054L69.9959 11.7292L76.7275 4.94567C76.9903 4.68871 77.2007 4.58594 77.4638 4.58594C77.8845 4.58594 77.9895 4.79151 77.8845 5.25402L76.149 13.1681C76.0439 13.6307 75.7808 13.8362 75.3601 13.8362C74.9394 13.8362 74.7816 13.6307 74.8869 13.2196L76.3068 6.69294L69.6278 13.4251C69.4702 13.5794 69.3649 13.6822 69.2596 13.7334C69.1546 13.785 69.0493 13.785 68.8917 13.785C68.4708 13.8362 68.3132 13.5794 68.4182 13.1681Z" fill="black"/>
<path d="M68.4182 13.1681L70.1538 5.25402C70.2588 4.79151 70.5219 4.58594 70.9426 4.58594C71.3633 4.58594 71.5211 4.8429 71.4158 5.3054L69.9959 11.7292L76.7275 4.94567C76.9903 4.68871 77.2007 4.58594 77.4638 4.58594C77.8845 4.58594 77.9895 4.79151 77.8845 5.25402L76.149 13.1681C76.0439 13.6307 75.7808 13.8362 75.3601 13.8362C74.9394 13.8362 74.7816 13.6307 74.8869 13.2196L76.3068 6.69294L69.6278 13.4251C69.4702 13.5794 69.3649 13.6822 69.2596 13.7334C69.1546 13.785 69.0493 13.785 68.8917 13.785C68.4708 13.8362 68.3132 13.5794 68.4182 13.1681Z" fill="black"/>
<path d="M75.3606 13.9392C75.0977 13.9392 74.9399 13.888 74.8349 13.7337C74.7296 13.5796 74.677 13.4254 74.7296 13.1683L76.0969 7.05293L69.7336 13.5281C69.5757 13.6824 69.4179 13.7852 69.3129 13.888C69.2076 13.9392 69.0498 13.9907 68.8922 13.9907C68.6818 13.9907 68.524 13.9392 68.4187 13.7852C68.3137 13.6309 68.2609 13.4254 68.3137 13.1683L70.0492 5.25427C70.2068 4.63758 70.6275 4.4834 70.9431 4.4834C71.1535 4.4834 71.3113 4.53481 71.4163 4.68897C71.5216 4.84316 71.5741 5.0487 71.5216 5.35705L70.1543 11.3696L76.6229 4.84315C76.8858 4.5862 77.1487 4.4834 77.4118 4.4834C77.6221 4.4834 77.7797 4.53481 77.885 4.68897C77.99 4.84316 78.0428 5.0487 77.99 5.30566L76.2548 13.2198C76.1495 13.6824 75.8341 13.9392 75.3606 13.9392ZM76.5176 6.33347L74.9924 13.2198C74.9399 13.3741 74.9399 13.5281 75.0452 13.6309C75.0977 13.6824 75.2028 13.7337 75.4134 13.7337C75.7813 13.7337 75.9916 13.5281 76.0969 13.1683L77.8325 5.25427C77.885 5.0487 77.885 4.89454 77.7797 4.79174C77.7272 4.74036 77.6221 4.68897 77.4643 4.68897C77.2539 4.68897 77.0436 4.79174 76.8333 4.99732L69.8386 12.0893L71.3638 5.30566C71.4163 5.10009 71.4163 4.89454 71.3113 4.84315C71.2588 4.79174 71.1535 4.74036 70.9956 4.74036C70.6275 4.74036 70.4171 4.94593 70.3121 5.35705L68.5765 13.2713C68.524 13.4769 68.524 13.6309 68.6291 13.6824C68.6818 13.7337 68.7869 13.7852 68.9447 13.7852C69.1025 13.7852 69.2076 13.7852 69.2604 13.7337C69.3654 13.6824 69.4707 13.5796 69.6283 13.4254L76.5176 6.33347Z" fill="white"/>
<path d="M84.2497 13.2189L84.9858 9.77582H82.8823C82.4088 9.77582 82.0407 9.82708 81.8303 9.98136C81.5675 10.1356 81.3571 10.3925 81.1993 10.7008L80.5157 11.9856C80.2001 12.5509 79.8319 12.962 79.4113 13.3216C78.938 13.6302 78.4646 13.8357 77.9914 13.8357C77.4654 13.8357 77.255 13.6302 77.3603 13.2704C77.4654 12.9105 77.7285 12.705 78.2542 12.705C78.4121 12.705 78.6224 12.6022 78.8327 12.4482C79.0431 12.2939 79.1484 12.1399 79.2534 11.9343L79.9898 10.4952C80.2001 10.0841 80.5158 9.72431 80.8839 9.41599C79.9898 9.00489 79.6216 8.23397 79.8847 7.20625C80.0423 6.38402 80.5157 5.76733 81.2521 5.3048C81.9882 4.89368 82.9348 4.63672 84.0919 4.63672H86.8266C87.2473 4.63672 87.3523 4.89368 87.2473 5.35621L85.5643 13.2189C85.4592 13.6302 85.1961 13.887 84.8282 13.8357C84.3547 13.887 84.1969 13.6815 84.2497 13.2189ZM85.8799 5.8701H83.7762C82.9348 5.8701 82.3563 5.97287 81.9356 6.17845C81.5149 6.38402 81.2518 6.74375 81.1468 7.25764C80.9364 8.13119 81.62 8.5938 83.1977 8.5938H85.3014L85.8799 5.8701Z" fill="black"/>
<path d="M84.2497 13.2189L84.9858 9.77582H82.8823C82.4088 9.77582 82.0407 9.82708 81.8303 9.98136C81.5675 10.1356 81.3571 10.3925 81.1993 10.7008L80.5157 11.9856C80.2001 12.5509 79.8319 12.962 79.4113 13.3216C78.938 13.6302 78.4646 13.8357 77.9914 13.8357C77.4654 13.8357 77.255 13.6302 77.3603 13.2704C77.4654 12.9105 77.7285 12.705 78.2542 12.705C78.4121 12.705 78.6224 12.6022 78.8327 12.4482C79.0431 12.2939 79.1484 12.1399 79.2534 11.9343L79.9898 10.4952C80.2001 10.0841 80.5158 9.72431 80.8839 9.41599C79.9898 9.00489 79.6216 8.23397 79.8847 7.20625C80.0423 6.38402 80.5157 5.76733 81.2521 5.3048C81.9882 4.89368 82.9348 4.63672 84.0919 4.63672H86.8266C87.2473 4.63672 87.3523 4.89368 87.2473 5.35621L85.5643 13.2189C85.4592 13.6302 85.1961 13.887 84.8282 13.8357C84.3547 13.887 84.1969 13.6815 84.2497 13.2189ZM85.8799 5.8701H83.7762C82.9348 5.8701 82.3563 5.97287 81.9356 6.17845C81.5149 6.38402 81.2518 6.74375 81.1468 7.25764C80.9364 8.13119 81.62 8.5938 83.1977 8.5938H85.3014L85.8799 5.8701Z" fill="black"/>
<path d="M84.7743 13.99C84.5114 13.99 84.3536 13.9387 84.2485 13.7844C84.1433 13.6304 84.0907 13.4761 84.1433 13.2193L84.8796 9.93031H82.9337C82.513 9.93031 82.1449 9.98157 81.9345 10.1359C81.7242 10.2899 81.5138 10.4954 81.356 10.8038L80.6724 12.0886C80.3568 12.6539 79.9886 13.1163 79.5154 13.4249C79.042 13.7844 78.5688 13.9387 78.0428 13.9387C77.7274 13.9387 77.517 13.8872 77.3592 13.7332C77.2539 13.6304 77.2539 13.4249 77.2539 13.2193C77.3067 12.9107 77.5696 12.5512 78.2531 12.5512C78.4109 12.5512 78.5687 12.4996 78.7266 12.3456C78.8844 12.1913 79.042 12.0373 79.1473 11.883L79.8836 10.4442C80.0939 10.0331 80.3568 9.72452 80.6724 9.41619C79.8308 8.95384 79.5154 8.18291 79.7258 7.1551C79.9361 6.33284 80.4093 5.66476 81.1457 5.20226C81.882 4.79114 82.8284 4.53418 83.9854 4.53418H84.038H86.7727C86.983 4.53418 87.1408 4.58557 87.2461 4.73973C87.3512 4.89391 87.4037 5.09946 87.3512 5.4078L85.6157 13.2193C85.5631 13.7332 85.2477 13.99 84.7743 13.99ZM84.3536 13.2706C84.3011 13.4761 84.3011 13.5789 84.4061 13.6817C84.4589 13.7844 84.6165 13.7844 84.7743 13.7844C85.1425 13.7844 85.3528 13.6304 85.4053 13.2193L87.1409 5.4078C87.1934 5.20226 87.1934 4.99669 87.0883 4.9453C87.0358 4.89391 86.9305 4.84253 86.7727 4.84253H84.038C82.8812 4.84253 81.987 5.04807 81.2507 5.45922C80.5671 5.87033 80.0939 6.48702 79.9361 7.25788C79.7258 8.28569 80.0412 8.95384 80.8828 9.36493L81.0404 9.41619L80.8828 9.51897C80.5146 9.77602 80.2515 10.1359 79.9886 10.5469L79.2523 11.9858C79.1473 12.1913 78.9894 12.3456 78.7791 12.4996C78.5687 12.6539 78.3584 12.7567 78.1481 12.7567C77.6746 12.7567 77.4117 12.9107 77.3592 13.2193C77.3067 13.3733 77.3592 13.4761 77.4117 13.5276C77.4642 13.6304 77.6746 13.6817 77.8852 13.6817C78.3059 13.6817 78.7791 13.5276 79.1998 13.2193C79.6205 12.9107 79.9886 12.4484 80.3043 11.9345L80.9878 10.6497C81.1982 10.2899 81.4085 10.0331 81.6716 9.8788C81.9345 9.72451 82.3027 9.67325 82.7759 9.67325C82.7759 9.67325 82.7759 9.67325 82.8284 9.67325H85.0899L84.3536 13.2706ZM85.3528 8.74829H83.1966C82.1449 8.74829 81.5138 8.54274 81.1982 8.18291C80.9878 7.92586 80.9353 7.66904 81.0404 7.30926C81.1457 6.79537 81.4613 6.38423 81.882 6.17868C82.3027 5.97311 82.9337 5.81895 83.7751 5.81895H85.9838L85.3528 8.74829ZM83.7226 5.97311C82.9862 5.97311 82.3552 6.07588 81.987 6.28145C81.5663 6.48703 81.356 6.79537 81.2507 7.25788C81.1982 7.56627 81.2507 7.77182 81.356 7.97736C81.6189 8.28569 82.2501 8.43997 83.1966 8.49123H85.195L85.7735 5.97311H83.8276C83.7751 5.97311 83.7751 5.97311 83.7226 5.97311Z" fill="white"/>
<path d="M93.4515 10.2968C93.3987 10.194 93.3462 10.0913 93.3987 9.93721C93.4515 9.78293 93.504 9.68016 93.6093 9.57738C93.7143 9.47461 93.8722 9.47461 94.03 9.47461H99.6045C99.7623 9.47461 99.9199 9.52612 99.9727 9.57738C100.025 9.68016 100.078 9.78293 100.025 9.93721C99.9727 10.0913 99.9199 10.194 99.8148 10.2968C99.7095 10.3996 99.5517 10.3996 99.3941 10.3996H93.8196C93.6618 10.4511 93.5565 10.3996 93.4515 10.2968Z" fill="black"/>
<path d="M93.4515 10.2968C93.3987 10.194 93.3462 10.0913 93.3987 9.93721C93.4515 9.78293 93.504 9.68016 93.6093 9.57738C93.7143 9.47461 93.8722 9.47461 94.03 9.47461H99.6045C99.7623 9.47461 99.9199 9.52612 99.9727 9.57738C100.025 9.68016 100.078 9.78293 100.025 9.93721C99.9727 10.0913 99.9199 10.194 99.8148 10.2968C99.7095 10.3996 99.5517 10.3996 99.3941 10.3996H93.8196C93.6618 10.4511 93.5565 10.3996 93.4515 10.2968Z" fill="black"/>
<path d="M99.3952 10.5551C99.3426 10.5551 99.3426 10.5551 99.3952 10.5551H93.8207C93.6103 10.5551 93.5053 10.5036 93.4 10.4008C93.2949 10.298 93.2949 10.144 93.2949 9.93842C93.3474 9.73288 93.4 9.6301 93.5578 9.52709C93.7156 9.42431 93.8734 9.37305 94.031 9.37305H99.6055C99.8159 9.37305 99.9737 9.42431 100.079 9.52709C100.184 9.6301 100.184 9.78414 100.131 9.98969C100.079 10.1952 100.026 10.298 99.8686 10.4008C99.7108 10.5036 99.553 10.5551 99.3952 10.5551ZM94.031 9.57859C93.8734 9.57859 93.7681 9.6301 93.7156 9.68137C93.6103 9.73288 93.5578 9.83565 93.5578 9.98969C93.5578 10.0925 93.5578 10.1952 93.6103 10.2467C93.6631 10.298 93.7681 10.3495 93.8734 10.3495H99.4479C99.6055 10.3495 99.7108 10.298 99.8159 10.2467C99.9212 10.1952 99.9737 10.0925 99.9737 9.93842C100.026 9.83565 99.9737 9.73288 99.9212 9.68137C99.8686 9.6301 99.7633 9.57859 99.6583 9.57859H94.031Z" fill="white"/>
<path d="M39.4441 17.6426L36.1836 32.5458H98.5024L101.816 17.6426H39.4441Z" fill="#25649F"/>
<path d="M44.8573 30.1268C43.8581 30.1268 43.1218 30.024 42.5961 29.8697C42.0701 29.7157 41.7545 29.4074 41.5969 29.0475C41.4391 28.688 41.4391 28.1226 41.5969 27.4544L42.4383 23.7031C42.5961 23.035 42.8064 22.5211 43.1218 22.1613C43.4375 21.8014 43.8581 21.4931 44.4367 21.3391C45.0152 21.1848 45.6987 21.082 46.5929 21.082H48.9594C49.538 21.082 49.9586 21.2363 50.169 21.4931C50.3793 21.7502 50.4319 22.2128 50.3268 22.7779C50.2215 23.2918 49.9586 23.5488 49.538 23.5488C49.3274 23.5488 49.2223 23.4973 49.117 23.3433C49.012 23.189 49.012 23.035 49.0645 22.7779C49.117 22.5211 49.117 22.3668 49.0645 22.3156C49.012 22.2128 48.8541 22.2128 48.6438 22.2128H46.3825C45.6987 22.2128 45.173 22.264 44.8573 22.3156C44.5417 22.3668 44.2788 22.5211 44.121 22.7267C43.9632 22.9322 43.8056 23.2405 43.7003 23.7031L42.859 27.4032C42.7537 27.8655 42.7537 28.1738 42.8064 28.3794C42.9115 28.5849 43.1218 28.7392 43.4375 28.7907C43.8056 28.842 44.3314 28.8935 45.1202 28.8935H47.1186C47.329 28.8935 47.4868 28.842 47.5921 28.7907C47.6971 28.688 47.7499 28.5337 47.8024 28.3281C47.8549 28.1226 47.9602 27.917 48.0653 27.7628C48.2231 27.6087 48.3809 27.5572 48.5913 27.5572C49.012 27.5572 49.1698 27.8143 49.0645 28.3794C48.9594 28.9448 48.6963 29.4074 48.3282 29.6642C47.9602 29.9212 47.5393 30.0753 46.9083 30.0753L44.8573 30.1268Z" fill="white"/>
<path d="M47.0151 30.2338H44.8589C43.8597 30.2338 43.1233 30.131 42.5974 29.9767C42.0716 29.8227 41.7035 29.5141 41.4931 29.103C41.3353 28.6919 41.3353 28.1268 41.4406 27.4586L42.282 23.707C42.4398 23.0391 42.6501 22.4737 43.0183 22.1139C43.3337 21.7028 43.8071 21.446 44.3854 21.2402C44.9639 21.0862 45.7002 20.9834 46.5944 20.9834H48.9607C49.592 20.9834 50.0127 21.1374 50.2756 21.446C50.5384 21.7543 50.5912 22.2167 50.4334 22.8333C50.2756 23.553 49.8549 23.707 49.5392 23.707C49.2764 23.707 49.1185 23.6042 49.0135 23.4502C48.9082 23.2959 48.9082 23.0904 48.9607 22.8333C49.0135 22.5765 48.9607 22.4737 48.9607 22.4737C48.9607 22.4737 48.8557 22.4222 48.5928 22.371H46.3313C45.6477 22.371 45.1217 22.4222 44.8063 22.4737C44.4907 22.525 44.2804 22.6793 44.1225 22.8333C43.9647 23.0389 43.8597 23.3474 43.7544 23.7585L42.913 27.4586C42.8077 27.8697 42.8079 28.1781 42.8605 28.3836C42.913 28.5379 43.1233 28.6919 43.439 28.7434C43.7544 28.7947 44.3329 28.8462 45.0692 28.8462H47.0676C47.278 28.8462 47.4358 28.7947 47.4883 28.7434C47.5408 28.6919 47.5936 28.5892 47.6986 28.3323C47.7512 28.0753 47.8565 27.8697 48.0143 27.7155C48.1719 27.5614 48.3825 27.5099 48.5928 27.5099C48.8031 27.5099 48.9607 27.5614 49.066 27.7155C49.1713 27.8697 49.2238 28.1268 49.1713 28.4351C49.0135 29.0518 48.8031 29.4629 48.435 29.7712C48.0668 30.0795 47.5936 30.2338 47.0151 30.2338ZM46.4891 21.1374C45.6477 21.1374 44.9639 21.2402 44.4382 21.3945C43.9122 21.5488 43.4915 21.8056 43.1759 22.1654C42.8605 22.525 42.6501 23.0391 42.4923 23.707L41.6509 27.4586C41.4931 28.1268 41.4931 28.5892 41.6509 28.949C41.8085 29.3086 42.1241 29.5656 42.5974 29.7199C43.1233 29.874 43.8597 29.9767 44.8063 29.9767H46.9098C47.4883 29.9767 47.909 29.8227 48.2246 29.5656C48.54 29.3086 48.7504 28.8975 48.9082 28.3323C48.9607 28.0753 48.9607 27.8697 48.8557 27.767C48.8031 27.7155 48.6978 27.6642 48.54 27.6642C48.3825 27.6642 48.2246 27.7155 48.1193 27.8182C48.0143 27.921 47.909 28.0753 47.8565 28.3323C47.8039 28.5892 47.6986 28.7434 47.5936 28.8462C47.4883 28.949 47.278 29.0003 47.0151 29.0003H45.0167C44.2278 29.0003 43.6493 28.949 43.3337 28.8975C42.9655 28.7947 42.7027 28.6407 42.5974 28.3836C42.4923 28.1781 42.4923 27.8182 42.5974 27.3559L43.439 23.6558C43.544 23.1932 43.7019 22.8848 43.8597 22.6278C44.0175 22.4222 44.3329 22.2682 44.7011 22.1654C45.0692 22.1139 45.5424 22.0626 46.2788 22.0626H48.54C48.8031 22.0626 48.9607 22.1139 49.066 22.2167C49.1713 22.3195 49.1713 22.525 49.1185 22.7821C49.066 22.9876 49.066 23.1419 49.1713 23.2447C49.2238 23.3474 49.3289 23.3987 49.4867 23.3987C49.8549 23.3987 50.0652 23.1932 50.1705 22.6793C50.2756 22.1139 50.2756 21.7028 50.0652 21.446C49.8549 21.1889 49.4867 21.0862 48.9607 21.0862H46.5944C46.5416 21.1374 46.5416 21.1374 46.4891 21.1374Z" fill="white"/>
<path d="M58.2174 21.082C58.6908 21.082 58.9012 21.2876 58.7959 21.6474C58.6908 22.0585 58.4277 22.2128 57.9545 22.2128H55.8508L54.2206 29.5614C54.168 29.767 54.0627 29.9212 53.9049 30.024C53.7473 30.1268 53.537 30.2296 53.3267 30.1781C53.1161 30.1781 52.9585 30.1268 52.8532 30.024C52.7481 29.9212 52.7481 29.767 52.8007 29.5614L54.4309 22.2128H52.2747C52.0643 22.2128 51.854 22.1613 51.7489 22.0585C51.6436 21.9557 51.5911 21.8014 51.6436 21.6474C51.6962 21.4931 51.8015 21.3391 51.9065 21.2363C52.0643 21.1335 52.2747 21.082 52.485 21.082H58.2174Z" fill="white"/>
<path d="M53.3252 30.3356C53.0624 30.3356 52.852 30.2841 52.747 30.13C52.6417 29.9757 52.5892 29.8217 52.6417 29.5646L54.2194 22.37H52.221C51.9581 22.37 51.7478 22.3185 51.6425 22.1645C51.4847 22.0102 51.4847 21.8562 51.5374 21.6506C51.59 21.4451 51.695 21.2908 51.8528 21.1367C52.0107 21.034 52.221 20.9309 52.4839 20.9825H58.1637C58.4791 20.9825 58.6897 21.034 58.7947 21.188C58.9 21.2908 58.9 21.4963 58.9 21.7019C58.8472 22.0102 58.6369 22.37 57.9533 22.37H55.9022L54.3247 29.6161C54.2719 29.8217 54.1669 30.0272 53.9565 30.13C53.7462 30.2841 53.5358 30.3356 53.3252 30.3356ZM52.4839 21.188C52.2735 21.188 52.1157 21.2395 52.0107 21.3423C51.9054 21.4451 51.8003 21.5478 51.7478 21.7019C51.695 21.8562 51.7478 21.9589 51.8003 22.0102C51.9054 22.113 52.0107 22.113 52.221 22.1645H54.535L52.9046 29.6161C52.852 29.7702 52.9046 29.9245 52.9573 29.9757C53.0099 30.0785 53.1677 30.13 53.3252 30.13C53.5358 30.13 53.6934 30.0785 53.8512 29.9757C54.0091 29.873 54.0616 29.7189 54.1141 29.5646L55.7446 22.113H57.9533C58.374 22.113 58.6369 21.9589 58.6897 21.5991C58.7422 21.4451 58.6897 21.3423 58.6369 21.2908C58.5844 21.188 58.4265 21.1367 58.1637 21.1367L52.4839 21.188Z" fill="white"/>
<path d="M59.7938 29.6169C59.6885 30.0282 59.4256 30.2338 59.0049 30.2338C58.5843 30.2338 58.4264 30.0282 58.5315 29.5656L60.267 21.7028C60.3195 21.4973 60.4248 21.2917 60.5301 21.1889C60.6352 21.0862 60.8455 20.9834 61.0033 20.9834H63.8431C65.1054 20.9834 65.9993 21.1889 66.5253 21.4973C66.9985 21.8571 67.2089 22.4222 66.9985 23.1932C66.8407 23.9641 66.42 24.5807 65.8415 24.9918C65.263 25.4029 64.4742 25.6085 63.5277 25.6085H60.6352L59.7938 29.6169ZM63.107 24.4779C64.1062 24.4779 64.7898 24.4264 65.1054 24.2209C65.4208 24.0669 65.6312 23.7585 65.7365 23.2959C65.789 22.9876 65.789 22.7306 65.6839 22.5765C65.5786 22.4222 65.3683 22.3195 65.0527 22.2682C64.7373 22.2167 64.2638 22.1654 63.5803 22.1654H61.3715L60.8455 24.4264L63.107 24.4779Z" fill="white"/>
<path d="M59.0071 30.3878C58.7442 30.3878 58.5864 30.3366 58.4811 30.1823C58.3761 30.0282 58.3236 29.874 58.3761 29.6171L60.1116 21.7543C60.1641 21.4973 60.2692 21.2917 60.427 21.1889C60.5848 21.0347 60.7952 20.9834 61.0055 20.9834H63.8453C65.1601 20.9834 66.0543 21.1889 66.58 21.5488C67.106 21.9084 67.3163 22.525 67.106 23.3474C66.9482 24.1696 66.5275 24.7863 65.8965 25.1974C65.2654 25.6085 64.4766 25.814 63.5299 25.814H60.6901L59.8485 29.6684C59.796 30.131 59.4806 30.3878 59.0071 30.3878ZM61.0055 21.1374C60.8477 21.1374 60.7426 21.1889 60.5848 21.2917C60.4798 21.3945 60.3745 21.5488 60.3219 21.7543L58.5864 29.6171C58.5339 29.8227 58.5339 29.9255 58.6389 30.0282C58.6917 30.0795 58.7968 30.131 58.9546 30.131C59.3228 30.131 59.5331 29.9767 59.5856 29.5656L60.4798 25.5057H63.4774C64.3713 25.5057 65.1601 25.3002 65.7386 24.9406C66.3171 24.5292 66.6853 23.9641 66.8431 23.1932C67.0007 22.4737 66.8431 21.9599 66.4222 21.6C65.949 21.2402 65.0551 21.0862 63.8453 21.0862L61.0055 21.1374ZM63.267 24.5807C63.2142 24.5807 63.1617 24.5807 63.1092 24.5807H60.7952L61.3737 22.0626H63.6877C64.3713 22.0626 64.8447 22.1139 65.1601 22.1654C65.5283 22.2167 65.7386 22.371 65.8439 22.525C65.949 22.7306 65.949 22.9876 65.8965 23.2959C65.7912 23.8098 65.5283 24.1181 65.2126 24.2724C64.8447 24.5292 64.2134 24.5807 63.267 24.5807ZM63.1092 24.3752C64.1084 24.3752 64.7394 24.3237 65.0551 24.1696C65.3705 24.0669 65.5283 23.7585 65.6333 23.3474C65.6861 23.0389 65.6861 22.8333 65.6333 22.7305C65.5808 22.5765 65.3705 22.525 65.1076 22.4737C64.792 22.4222 64.3187 22.371 63.6349 22.371H61.5315L61.058 24.4264L63.1092 24.3752Z" fill="white"/>
<path d="M73.1521 21.1406L74.8874 29.5684C74.8874 29.6712 74.8874 29.774 74.8349 29.9283C74.7824 30.0823 74.7298 30.1851 74.572 30.2878C74.4142 30.3906 74.2564 30.4421 74.0986 30.4421C73.7832 30.4421 73.6253 30.2878 73.5728 29.9795L73.0994 27.5642H69.05L67.5249 29.9795C67.3145 30.2878 67.0516 30.4421 66.7888 30.4421C66.631 30.4421 66.4731 30.3906 66.3678 30.2878C66.2628 30.1851 66.2103 30.0823 66.2628 29.9283C66.3153 29.774 66.3153 29.6712 66.3678 29.5684L71.7848 21.1406H73.1521ZM72.0476 22.8878L69.7864 26.3822H72.784L72.0476 22.8878Z" fill="white"/>
<path d="M74.0988 30.5454C73.7307 30.5454 73.5203 30.3398 73.4153 30.0315L72.9418 27.719H69.0503L67.5251 30.0828C67.3148 30.3911 66.9992 30.5966 66.6838 30.5966C66.4734 30.5966 66.3156 30.5454 66.2103 30.3911C66.1053 30.2371 66.0527 30.0828 66.0527 29.9287C66.1053 29.7745 66.1053 29.6717 66.2103 29.5689L71.7323 21.0381H73.2575V21.1409L74.993 29.5689C74.993 29.6717 74.993 29.826 74.9402 29.98C74.8877 30.1343 74.7827 30.2883 74.6248 30.3911C74.467 30.4939 74.3092 30.5454 74.0988 30.5454ZM68.9976 27.4619H73.2049L73.6782 29.98C73.7307 30.2371 73.836 30.3398 74.0988 30.3398C74.2567 30.3398 74.3617 30.2883 74.5195 30.1855C74.6248 30.0828 74.7299 30.0315 74.7299 29.8772C74.7824 29.7745 74.7827 29.6204 74.7827 29.5689L73.0997 21.2436H71.8901L66.4734 29.6204C66.4207 29.6717 66.3681 29.826 66.3681 29.9287C66.3681 30.0315 66.3681 30.0828 66.4734 30.1855C66.5785 30.2883 66.6838 30.2883 66.7888 30.2883C67.0519 30.2883 67.2623 30.1343 67.4199 29.8772L68.9976 27.4619ZM72.9418 26.4855H69.5761L72.1005 22.6312L72.9418 26.4855ZM69.9968 26.2799H72.679L71.9952 23.1963L69.9968 26.2799Z" fill="white"/>
<path d="M77.5711 29.6642C77.4658 30.1268 77.203 30.3323 76.7823 30.3323C76.3616 30.3323 76.2038 30.1268 76.3088 29.6642L78.0444 21.7502C78.1497 21.2876 78.4125 21.082 78.7807 21.082C79.2014 21.082 79.4117 21.2876 79.3067 21.7502L78.6229 24.7821H83.8292L84.513 21.8014C84.6181 21.3391 84.8812 21.1335 85.3019 21.1335C85.7226 21.1335 85.8804 21.3391 85.7751 21.8014L84.0396 29.6642C83.9345 30.1268 83.6716 30.3323 83.2507 30.3323C82.83 30.3323 82.6722 30.1268 82.7775 29.6642L83.6189 25.9641H78.4125L77.5711 29.6642Z" fill="white"/>
<path d="M83.3018 30.4361C83.0387 30.4361 82.8811 30.3846 82.7758 30.2305C82.6708 30.0762 82.618 29.8707 82.6708 29.6136L83.4597 26.0163H78.4634L77.6746 29.6652C77.5695 30.179 77.2539 30.4361 76.7807 30.4361C76.5703 30.4361 76.36 30.3846 76.2547 30.2305C76.1496 30.0762 76.0968 29.8707 76.1496 29.6136L77.8849 21.6996C78.0427 21.083 78.4109 20.9287 78.7265 20.9287C78.9894 20.9287 79.1472 20.9802 79.2523 21.1343C79.3576 21.2885 79.4101 21.4941 79.3576 21.7509L78.7265 24.6288H83.7225L84.3536 21.6996C84.5114 21.083 84.9321 20.9287 85.2477 20.9287C85.4581 20.9287 85.6684 20.9802 85.7734 21.1343C85.8787 21.2885 85.9313 21.4941 85.8787 21.7509L84.1432 29.6652C84.0379 30.179 83.7225 30.4361 83.3018 30.4361ZM78.3058 25.8108H83.7225L82.8811 29.6652C82.8284 29.8707 82.8284 30.0247 82.9337 30.0762C82.9862 30.1278 83.0915 30.179 83.2491 30.179C83.6172 30.179 83.8276 29.9735 83.9329 29.6136L85.6684 21.6996C85.7209 21.4941 85.7209 21.3398 85.6156 21.237C85.5631 21.1858 85.4581 21.1343 85.3002 21.1343C84.9321 21.1343 84.7217 21.3398 84.6164 21.7509L83.9329 24.8343H78.5162L79.1997 21.6996C79.2523 21.4941 79.2523 21.3398 79.1472 21.2885C79.0947 21.1858 78.9894 21.1858 78.7791 21.1858C78.4109 21.1858 78.2531 21.3913 78.148 21.8024L76.465 29.6652C76.4125 29.8707 76.4125 30.0247 76.5178 30.0762C76.5703 30.1278 76.6754 30.179 76.8332 30.179C77.2013 30.179 77.4117 29.9735 77.517 29.6136L78.3058 25.8108Z" fill="white"/>
<path d="M92.3473 21.1875L94.0826 29.6154C94.0826 29.7182 94.0826 29.8212 94.0301 29.9753C93.9776 30.1296 93.9248 30.2323 93.7672 30.3351C93.6094 30.4379 93.4516 30.4891 93.2938 30.4891C92.9784 30.4891 92.8206 30.3351 92.768 30.0268L92.2421 27.6112H88.1927L86.6675 30.0268C86.4572 30.3351 86.1943 30.4891 85.9312 30.4891C85.7734 30.4891 85.6158 30.4379 85.5105 30.3351C85.4055 30.2323 85.3527 30.1296 85.4055 29.9753C85.458 29.8212 85.458 29.7182 85.5105 29.6154L90.9272 21.1875H92.3473ZM91.2429 22.9347L88.9816 26.4292H91.9792L91.2429 22.9347Z" fill="white"/>
<path d="M93.2944 30.5894C92.9263 30.5894 92.7159 30.3838 92.6106 30.024L92.1374 27.7115H88.2456L86.7207 30.0753C86.5101 30.3838 86.1947 30.5894 85.8791 30.5894C85.6687 30.5894 85.5109 30.5379 85.4059 30.3838C85.3006 30.2296 85.248 30.0753 85.248 29.9212C85.3006 29.767 85.3006 29.6642 85.4059 29.5614L90.8751 21.082H92.4003V21.1848L94.1358 29.6129C94.1358 29.7157 94.1358 29.8697 94.0833 30.024C94.0305 30.1781 93.9255 30.3323 93.7676 30.4351C93.6623 30.5379 93.452 30.5894 93.2944 30.5894ZM88.1406 27.5059H92.3477L92.821 30.024C92.8737 30.2808 92.9788 30.3838 93.2416 30.3838C93.3995 30.3838 93.5048 30.3323 93.6623 30.2296C93.7676 30.1268 93.8729 30.024 93.8729 29.9725C93.9254 29.8185 93.9255 29.7157 93.9255 29.6642L92.2424 21.2876H91.0329L85.6162 29.6642C85.5637 29.767 85.5109 29.8697 85.5109 29.9725C85.5109 30.0753 85.5109 30.1268 85.6162 30.2296C85.7213 30.3323 85.8266 30.3323 85.9319 30.3323C86.1947 30.3323 86.4051 30.1781 86.5629 29.9212L88.1406 27.5059ZM92.1374 26.5295H88.7716L91.296 22.6751L92.1374 26.5295ZM89.1923 26.3239H91.8743L91.1907 23.2405L89.1923 26.3239Z" fill="white"/>
<path d="M3.26057 33.7744L0 48.5235H126.163L129.371 33.7744H3.26057Z" fill="#AE3857"/>
<path d="M6.94265 37.2226C6.99525 37.0168 7.10042 36.8112 7.2056 36.7085C7.36337 36.6057 7.52114 36.5029 7.67891 36.5029H10.4662C11.3602 36.5029 12.0439 36.6057 12.5698 36.76C13.0431 36.914 13.4112 37.1711 13.569 37.5309C13.7268 37.8905 13.7793 38.3016 13.6216 38.867C13.4638 39.5351 13.2008 39.9975 12.7275 40.3573C13.4112 40.7684 13.6216 41.5393 13.3586 42.6698L13.306 42.9269C13.1482 43.5948 12.9379 44.1089 12.5698 44.52C12.2542 44.8796 11.7809 45.1879 11.2024 45.3422C10.6239 45.4965 9.8351 45.5992 8.88848 45.5992H5.62791C5.41754 45.5992 5.31237 45.5477 5.20717 45.3935C5.1546 45.2907 5.102 45.0851 5.1546 44.8796L6.94265 37.2226ZM7.31077 41.231L6.62711 44.4172H9.20402C9.99285 44.4172 10.5188 44.3657 10.8869 44.3145C11.255 44.2629 11.518 44.1089 11.7283 43.9034C11.8861 43.6976 12.0439 43.3892 12.149 42.9269L12.2016 42.7213C12.3068 42.2587 12.3068 41.9504 12.2542 41.7449C12.2016 41.5393 11.9913 41.385 11.6757 41.3338C11.3602 41.2823 10.8869 41.231 10.2032 41.231H7.31077ZM9.72991 40.1002C10.4136 40.1002 10.8869 40.049 11.255 39.9975C11.6232 39.9462 11.8861 39.8434 12.0439 39.6892C12.2016 39.5351 12.3594 39.2781 12.412 38.9697C12.4646 38.6614 12.4646 38.4044 12.3594 38.2503C12.2542 38.096 12.0439 37.9933 11.7283 37.942C11.4128 37.8905 10.8869 37.8392 10.2558 37.8392H8.09962L7.57374 40.1002H9.72991Z" fill="white"/>
<path d="M9.09792 45.7508C9.04532 45.7508 8.99272 45.7508 8.94015 45.7508H5.67958C5.46921 45.7508 5.25884 45.6481 5.20627 45.4938C5.1011 45.3397 5.1011 45.1342 5.15367 44.8771L6.83655 37.2199C6.88915 36.9631 6.99432 36.7575 7.1521 36.6548C7.30987 36.5005 7.46764 36.4492 7.67798 36.4492H10.4653C11.3593 36.4492 12.0955 36.552 12.5689 36.706C13.0947 36.8603 13.4629 37.1686 13.6207 37.5282C13.831 37.888 13.831 38.3507 13.7258 38.9673C13.5681 39.5839 13.3051 40.0465 12.937 40.4061C13.5681 40.8687 13.7784 41.6397 13.5155 42.7702L13.4629 43.0272C13.3051 43.6951 13.0422 44.2605 12.7266 44.6716C12.3585 45.0827 11.8852 45.3397 11.3067 45.5453C10.7808 45.6481 9.99195 45.6993 9.09792 45.7508ZM7.67798 36.6548C7.52021 36.6548 7.36244 36.706 7.25727 36.8088C7.1521 36.9116 7.04692 37.0659 6.99432 37.2714L5.31144 44.9287C5.25884 45.1342 5.25887 45.2882 5.36404 45.3397C5.41662 45.4425 5.52181 45.4938 5.67958 45.4938H8.94015C9.88678 45.4938 10.6756 45.391 11.2541 45.237C11.8326 45.0827 12.2533 44.8259 12.5689 44.466C12.8844 44.1062 13.1473 43.5923 13.2525 42.9244L13.3051 42.6674C13.5681 41.5881 13.3577 40.8687 12.674 40.4576L12.5689 40.3549L12.674 40.2521C13.0947 39.8923 13.3577 39.4299 13.5155 38.813C13.6207 38.2991 13.6207 37.8368 13.4629 37.5282C13.3051 37.2199 12.9896 36.9631 12.5163 36.8088C12.0429 36.6548 11.3593 36.552 10.4653 36.552L7.67798 36.6548ZM9.41346 44.5688C9.36086 44.5688 9.30827 44.5688 9.25569 44.5688H6.52101L7.25727 41.177H10.2023C10.886 41.177 11.3593 41.2286 11.6748 41.2798C11.9904 41.3826 12.2533 41.5369 12.3059 41.7424C12.4111 41.948 12.3585 42.3076 12.2533 42.7702L12.2007 42.9757C12.0955 43.4383 11.9378 43.7466 11.78 44.0034C11.5696 44.2092 11.3067 44.3633 10.886 44.466C10.623 44.5176 10.0971 44.5688 9.41346 44.5688ZM6.78396 44.312H9.25569C9.99195 44.312 10.5704 44.2605 10.9386 44.2092C11.3067 44.1577 11.5171 44.0034 11.6748 43.8494C11.8326 43.6439 11.9904 43.3355 12.0429 42.9244L12.0955 42.7189C12.2007 42.3076 12.2007 41.9992 12.1481 41.8452C12.0955 41.6909 11.9378 41.5881 11.6748 41.4854C11.3593 41.4341 10.886 41.3826 10.2549 41.3826H7.46764L6.78396 44.312ZM9.88678 40.2006C9.83418 40.2006 9.78158 40.2006 9.729 40.2006H7.41504L7.99352 37.6825H10.2549C10.9385 37.6825 11.4119 37.734 11.78 37.7853C12.1481 37.8368 12.3585 37.9908 12.4637 38.1451C12.5689 38.3506 12.6214 38.6075 12.5163 38.9158C12.4637 39.2756 12.3059 39.5327 12.1481 39.6867C11.9378 39.841 11.6748 39.995 11.3067 40.0465C10.9385 40.1493 10.5178 40.2006 9.88678 40.2006ZM7.73058 39.9438H9.729C10.4127 39.9438 10.886 39.8923 11.2541 39.841C11.5696 39.7895 11.8326 39.6867 11.9904 39.5327C12.1481 39.3784 12.2533 39.1728 12.3059 38.8645C12.3585 38.5562 12.3585 38.3507 12.2533 38.2479C12.1481 38.1451 11.9904 38.0423 11.6748 37.9908C11.3593 37.9396 10.886 37.888 10.2023 37.888H8.1513L7.73058 39.9438Z" fill="white"/>
<path d="M22.8762 42.3615C22.7185 43.0297 22.4555 43.6463 21.9822 44.1602C21.5615 44.674 21.0356 45.0851 20.3519 45.3422C19.7208 45.5992 18.9846 45.7533 18.1957 45.7533C17.4069 45.7533 16.7758 45.5992 16.2499 45.3422C15.724 45.0851 15.3559 44.674 15.1455 44.1602C14.9352 43.6463 14.9352 43.0297 15.0929 42.3615L15.6188 39.8947C15.7766 39.2268 16.0396 38.6099 16.5128 38.096C16.9336 37.5822 17.4595 37.1711 18.1431 36.914C18.7742 36.6572 19.5105 36.5029 20.2993 36.5029C21.0882 36.5029 21.7193 36.6572 22.2451 36.914C22.7711 37.1711 23.1392 37.5822 23.3495 38.096C23.5599 38.6099 23.5599 39.2268 23.4021 39.8947L22.8762 42.3615ZM20.089 37.6337C19.2475 37.6337 18.5639 37.8392 18.038 38.1988C17.5121 38.6099 17.1439 39.1753 16.9862 39.8947L16.4603 42.2587C16.3025 43.0297 16.4077 43.5948 16.7232 43.9546C17.0914 44.3657 17.6698 44.52 18.5113 44.5713C19.3527 44.5713 20.0364 44.3657 20.5623 44.0061C21.0882 43.5948 21.4563 43.0297 21.6141 42.3102L22.14 39.9462C22.2977 39.2268 22.1925 38.6614 21.877 38.2503C21.5615 37.8392 20.9304 37.6337 20.089 37.6337Z" fill="white"/>
<path d="M18.3027 45.9056H18.2501C17.4613 45.9056 16.7776 45.7513 16.2517 45.443C15.7258 45.1347 15.3051 44.7236 15.0947 44.2097C14.8844 43.6959 14.8844 43.0277 15.0421 42.3595L15.5681 39.893C15.7258 39.1733 16.0414 38.5567 16.4621 38.0428C16.8828 37.5289 17.4613 37.1179 18.0924 36.8095C18.7234 36.5012 19.4597 36.3984 20.2486 36.3984C21.0374 36.3984 21.7211 36.5525 22.247 36.8608C22.7729 37.1691 23.1936 37.5802 23.4039 38.0943C23.6143 38.6082 23.6143 39.2763 23.4565 39.9442L22.9306 42.4111C22.7729 43.1305 22.4573 43.7471 22.0366 44.2612C21.6159 44.7751 21.0374 45.1862 20.4063 45.4945C19.8278 45.7513 19.0916 45.8541 18.3027 45.9056ZM20.3011 36.5525C19.5649 36.5525 18.8812 36.7068 18.2501 36.9636C17.619 37.2206 17.0932 37.6317 16.6724 38.1456C16.2517 38.6595 15.9888 39.2248 15.831 39.893L15.3051 42.3595C15.1473 43.0277 15.1999 43.5931 15.3577 44.1069C15.5681 44.6208 15.8836 44.9806 16.4095 45.2375C16.9354 45.4945 17.5665 45.6485 18.3027 45.6485C19.039 45.6485 19.7752 45.4945 20.4063 45.2375C21.0374 44.9806 21.5633 44.5695 21.984 44.0554C22.4047 43.5416 22.6677 42.9764 22.8254 42.3083L23.3513 39.8415C23.5091 39.1733 23.4565 38.6082 23.2988 38.0943C23.0884 37.5802 22.7729 37.2206 22.247 36.9636C21.7211 36.7068 21.09 36.5525 20.3011 36.5525ZM18.5657 44.7236C17.619 44.7236 16.988 44.518 16.6198 44.1069C16.2517 43.6958 16.1465 43.0792 16.3043 42.3083L16.8302 39.9442C16.988 39.1733 17.3561 38.5567 17.9346 38.1971C18.4605 37.786 19.1968 37.5802 20.0382 37.5802H20.0908C20.9848 37.5802 21.6159 37.786 21.984 38.1971C22.3521 38.6595 22.4573 39.2761 22.2996 39.9958L21.7736 42.3595C21.6159 43.1305 21.2478 43.7471 20.6693 44.1069C20.1434 44.518 19.4071 44.7236 18.5657 44.7236ZM20.0382 37.7345C19.2493 37.7345 18.5657 37.94 18.0924 38.2999C17.5665 38.6595 17.2509 39.2248 17.0932 39.9442L16.5673 42.3083C16.4095 43.0277 16.5147 43.5416 16.8302 43.9014C17.1457 44.2612 17.7242 44.4668 18.5657 44.4668C19.4071 44.4668 20.0382 44.2612 20.5641 43.9014C21.09 43.5416 21.4055 42.9764 21.5633 42.2568L22.0892 39.893C22.247 39.2248 22.1418 38.6595 21.8262 38.2999C21.4581 37.94 20.8796 37.7345 20.0382 37.7345Z" fill="white"/>
<path d="M29.5551 40.4091C30.1336 40.4091 30.6068 40.3063 30.975 40.0492C31.3431 39.8437 31.606 39.5354 31.6585 39.1243C31.7638 38.7132 31.6585 38.4049 31.3431 38.1478C31.0275 37.891 30.6068 37.7367 30.0808 37.7367H27.3463C27.0832 37.7367 26.9257 37.7882 26.8729 37.8395C26.7678 37.891 26.7151 38.0965 26.6625 38.3533L26.61 38.6104C26.5047 39.073 26.2419 39.3298 25.8212 39.3298C25.4005 39.3298 25.2427 39.073 25.348 38.6104C25.5055 37.8395 25.7686 37.3256 26.084 37.0173C26.3997 36.709 26.8729 36.5547 27.5567 36.5547H30.5018C31.08 36.5547 31.606 36.6575 32.0267 36.863C32.4474 37.0686 32.7105 37.3769 32.9209 37.7367C33.0787 38.0965 33.1312 38.5589 33.0259 39.0215C32.8681 39.8437 32.3949 40.5118 31.6585 40.9744C32.1845 41.4883 32.3423 42.2077 32.1845 43.0299C32.0792 43.5438 31.8689 43.9549 31.501 44.3662C31.1328 44.7773 30.7121 45.0856 30.1861 45.2912C29.6601 45.4967 29.1344 45.5995 28.5559 45.5995H25.6108C24.9798 45.5995 24.559 45.4452 24.3487 45.1369C24.1383 44.8286 24.1383 44.3147 24.2961 43.5438C24.4012 43.0814 24.6642 42.8244 25.0848 42.8244C25.5055 42.8244 25.6633 43.0814 25.5583 43.5438L25.5055 43.8008C25.453 44.0579 25.453 44.2119 25.5055 44.3147C25.5583 44.3662 25.7159 44.4175 25.9262 44.4175H28.6609C29.1869 44.4175 29.6601 44.2634 30.0808 44.0064C30.5018 43.6981 30.7646 43.3382 30.8697 42.9271C30.975 42.516 30.8697 42.2077 30.6068 41.9507C30.3439 41.6939 29.9233 41.5396 29.3973 41.5396H28.1352C27.6092 41.5396 27.3989 41.334 27.5039 40.9744C27.6092 40.5631 27.8721 40.4091 28.3981 40.4091H29.5551Z" fill="white"/>
<path d="M28.4521 45.8014H25.4543C24.7707 45.8014 24.35 45.6471 24.1397 45.2875C23.9293 44.9792 23.9293 44.4138 24.0871 43.6429C24.2448 42.975 24.6656 42.8722 24.9811 42.8207C25.1914 42.8207 25.3493 42.8722 25.4543 43.0263C25.5596 43.1805 25.6121 43.3861 25.5596 43.6944L25.5071 43.9512C25.4543 44.2595 25.4543 44.3626 25.5071 44.3626C25.5071 44.3626 25.5596 44.4138 25.8752 44.4138H28.6097C29.1357 44.4138 29.5564 44.2595 29.9771 44.0027C30.3978 43.7457 30.6081 43.3861 30.7134 42.975C30.8185 42.6152 30.7134 42.3068 30.4505 42.1013C30.1874 41.8442 29.8193 41.7415 29.2935 41.7415H28.0312C27.7158 41.7415 27.5055 41.6902 27.3477 41.5359C27.2424 41.4331 27.2424 41.2276 27.2424 41.022C27.2951 40.7137 27.558 40.3539 28.2416 40.3539H29.5039C30.0296 40.3539 30.5031 40.2511 30.8712 40.0456C31.2394 39.84 31.4497 39.5832 31.5023 39.2234C31.6073 38.8636 31.5023 38.5552 31.2394 38.3497C30.9763 38.0929 30.5556 37.9901 30.0296 37.9901H27.2951C27.032 37.9901 26.927 38.0414 26.8744 38.0929C26.8217 38.1441 26.7691 38.2469 26.7166 38.504L26.6641 38.7608C26.5063 39.4289 26.0856 39.5317 25.7699 39.5832C25.5596 39.5832 25.4018 39.5317 25.2967 39.3777C25.1914 39.2234 25.1389 39.0178 25.1914 38.7095C25.3493 37.9386 25.6121 37.3732 25.9803 37.0649C26.3485 36.7566 26.8217 36.6025 27.5055 36.6025H30.4505C31.0816 36.6025 31.6073 36.7053 32.0283 36.9109C32.4489 37.1164 32.7643 37.4247 32.9747 37.8358C33.1325 38.2469 33.185 38.7095 33.08 39.1719C32.9222 39.9943 32.4489 40.611 31.7651 41.1248C32.2386 41.6902 32.3962 42.3581 32.1858 43.1805C32.0808 43.6944 31.8177 44.1568 31.5023 44.5681C31.1341 44.9792 30.7134 45.2875 30.1874 45.5443C29.6089 45.6471 29.0832 45.8014 28.4521 45.8014ZM24.9811 43.0263C24.613 43.0263 24.4026 43.2318 24.2974 43.6429C24.1396 44.3626 24.1397 44.8764 24.35 45.1332C24.5078 45.3903 24.9286 45.5443 25.5071 45.5443H28.4521C29.0304 45.5443 29.5564 45.4416 30.0296 45.236C30.5031 45.0305 30.9238 44.7221 31.2919 44.3626C31.6073 44.0027 31.8704 43.5401 31.9755 43.0778C32.1333 42.2553 31.9755 41.6387 31.5023 41.1248L31.397 41.022L31.5023 40.9705C32.2386 40.5082 32.6593 39.8915 32.8171 39.1206C32.9222 38.658 32.8696 38.2469 32.7118 37.8873C32.554 37.5275 32.2911 37.2704 31.8704 37.0649C31.4497 36.8593 30.9763 36.7566 30.3978 36.7566H27.4529C27.4529 36.7566 27.4529 36.7566 27.4002 36.7566C26.8217 36.7566 26.3485 36.9109 26.0856 37.1677C25.7699 37.476 25.5596 37.9386 25.4018 38.658C25.3493 38.8636 25.3493 39.0178 25.4543 39.1206C25.5071 39.1719 25.6121 39.2234 25.7699 39.2234C26.1381 39.2234 26.3485 39.0178 26.4535 38.6067L26.5063 38.3497C26.5588 38.0929 26.6641 37.8873 26.7691 37.7846C26.8744 37.6815 27.0848 37.6815 27.3477 37.6303H30.0824C30.6609 37.6303 31.1341 37.7846 31.4497 38.0414C31.7651 38.3497 31.8704 38.7095 31.8177 39.1719C31.7126 39.5832 31.5023 39.8915 31.0816 40.1483C30.6609 40.4054 30.1874 40.5082 29.6089 40.5082H28.3469C27.8736 40.5082 27.6105 40.6622 27.558 41.022C27.5055 41.1763 27.558 41.2791 27.6105 41.3304C27.6633 41.4331 27.8736 41.4847 28.084 41.4847H29.3461C29.9246 41.4847 30.3452 41.6387 30.6609 41.8957C30.9763 42.2041 31.0816 42.5637 30.9763 42.975C30.8712 43.4373 30.6081 43.7972 30.1349 44.1055C29.7142 44.4138 29.1882 44.5681 28.6625 44.5681H25.9278C25.6649 44.5681 25.4543 44.5166 25.4018 44.4138C25.2967 44.311 25.2967 44.1055 25.4018 43.8484L25.4543 43.5916C25.5071 43.3861 25.5071 43.2318 25.4018 43.129C25.244 43.0778 25.1389 43.0263 24.9811 43.0263Z" fill="white"/>
<path d="M38.9174 41.5911C38.7596 41.7451 38.5493 41.7966 38.3914 41.7966C38.1811 41.7966 38.076 41.7451 37.9182 41.5911L36.3405 38.5589L34.9206 45.0856C34.8153 45.548 34.5525 45.805 34.1318 45.805C33.7111 45.805 33.5533 45.5995 33.6586 45.1369L35.3938 37.2228C35.4991 36.7602 35.762 36.5547 36.1302 36.5547C36.393 36.5547 36.5509 36.6575 36.7087 36.9145L38.6546 40.5631L42.2307 36.9145C42.4935 36.6575 42.7039 36.5547 42.9142 36.5547C43.3349 36.5547 43.4927 36.7602 43.3877 37.2228L41.6522 45.1369C41.5469 45.5995 41.284 45.805 40.8633 45.805C40.4426 45.805 40.2848 45.548 40.3898 45.0856L41.81 38.5589L38.9174 41.5911Z" fill="white"/>
<path d="M40.9162 45.9056C40.6533 45.9056 40.4955 45.8541 40.3904 45.7001C40.2851 45.5458 40.2326 45.3402 40.2851 45.0319L41.6525 38.9165L38.9705 41.6916C38.7602 41.8457 38.6024 41.8972 38.392 41.8972C38.1817 41.8972 37.9713 41.7944 37.866 41.6401L36.3936 38.865L35.0263 45.0834C34.8684 45.7513 34.4477 45.9056 34.1321 45.9056C33.9218 45.9056 33.7114 45.8541 33.6064 45.7001C33.5011 45.5458 33.4485 45.3402 33.5011 45.0834L35.2366 37.1691C35.3944 36.5525 35.7623 36.3984 36.078 36.3984C36.3936 36.3984 36.604 36.5525 36.7618 36.8095L38.6549 40.3041L42.1259 36.8095C42.3888 36.5525 42.6517 36.4497 42.9148 36.4497C43.1251 36.4497 43.2827 36.5012 43.388 36.6552C43.4931 36.8095 43.5458 37.0151 43.4931 37.2719L41.7578 45.1862C41.6525 45.6485 41.3896 45.9056 40.9162 45.9056ZM42.0732 38.2484L40.5482 45.1347C40.4955 45.3402 40.4955 45.4945 40.6008 45.5973C40.6533 45.6485 40.7586 45.7001 40.9162 45.7001C41.2843 45.7001 41.4947 45.4945 41.6 45.1347L43.3355 37.2206C43.388 37.0151 43.388 36.8608 43.2827 36.758C43.2302 36.7068 43.1251 36.6552 42.9673 36.6552C42.757 36.6552 42.5466 36.758 42.3363 36.9636L38.6549 40.7152L36.604 36.9636C36.4987 36.758 36.3408 36.6552 36.1305 36.6552C35.8151 36.6552 35.6048 36.8608 35.4995 37.2719L33.7639 45.1862C33.7114 45.3917 33.7114 45.5458 33.8167 45.5973C33.8692 45.6485 33.9743 45.7001 34.1321 45.7001C34.5003 45.7001 34.7106 45.4945 34.8159 45.0834L36.3408 38.2484L38.0764 41.5374C38.1289 41.6401 38.2867 41.6916 38.4445 41.6916C38.6024 41.6916 38.7602 41.6401 38.8652 41.5374L42.0732 38.2484Z" fill="white"/>
<path d="M52.011 42.4609C51.8532 43.129 51.5903 43.7457 51.1168 44.2595C50.6961 44.7737 50.1702 45.1847 49.4866 45.4416C48.8556 45.6986 48.1192 45.8526 47.3304 45.8526C46.5415 45.8526 45.9105 45.6986 45.3845 45.4416C44.8588 45.1847 44.4906 44.7737 44.2803 44.2595C44.0699 43.7457 44.0699 43.129 44.2277 42.4609L44.7535 39.9943C44.9113 39.3262 45.1742 38.7095 45.6476 38.1957C46.0683 37.6815 46.5941 37.2704 47.2779 37.0136C47.9089 36.7566 48.6452 36.6025 49.4341 36.6025C50.2229 36.6025 50.854 36.7566 51.38 37.0136C51.9057 37.2704 52.2739 37.6815 52.4842 38.1957C52.6945 38.7095 52.6945 39.3262 52.5367 39.9943L52.011 42.4609ZM49.2237 37.733C48.3821 37.733 47.6986 37.9386 47.1726 38.2984C46.6468 38.7095 46.2787 39.2746 46.1208 39.9943L45.5949 42.3581C45.4373 43.129 45.5423 43.6944 45.858 44.054C46.2261 44.4653 46.8046 44.6194 47.646 44.6709C48.4874 44.6709 49.171 44.4653 49.6969 44.1055C50.2229 43.6944 50.5911 43.129 50.7487 42.4096L51.2747 40.0456C51.4325 39.3262 51.3272 38.7608 51.0118 38.3497C50.6961 37.9386 50.0651 37.733 49.2237 37.733Z" fill="white"/>
<path d="M47.4355 45.9564C46.5941 45.9564 45.9103 45.8023 45.3845 45.4938C44.8586 45.1855 44.4379 44.7744 44.2275 44.2605C44.0172 43.7466 44.0172 43.0785 44.175 42.4103L44.7007 39.9438C44.8586 39.2243 45.1742 38.6075 45.5949 38.0936C46.0156 37.5797 46.5941 37.1686 47.2251 36.8603C47.8562 36.6033 48.5925 36.4492 49.3813 36.4492C50.1702 36.4492 50.8538 36.6033 51.3797 36.9116C51.9057 37.2199 52.3264 37.6312 52.5368 38.1451C52.7471 38.659 52.7471 39.3271 52.5893 39.995L52.0633 42.4618C51.9057 43.1813 51.5901 43.7979 51.1694 44.312C50.7487 44.8259 50.1702 45.237 49.5392 45.5453C48.9607 45.8536 48.2243 45.9564 47.4355 45.9564ZM49.4339 36.6548C48.6975 36.6548 48.014 36.8088 47.3829 37.0659C46.7519 37.3227 46.2259 37.734 45.8052 38.2479C45.3845 38.7617 45.1214 39.3271 44.9639 39.995L44.4379 42.4618C44.2801 43.13 44.3326 43.6951 44.4904 44.2092C44.7007 44.7231 45.0164 45.0827 45.5421 45.3397C46.0681 45.5966 46.6991 45.7508 47.4355 45.7508C48.1718 45.7508 48.9079 45.5966 49.5392 45.3397C50.1702 45.0827 50.6959 44.6716 51.1169 44.1577C51.5376 43.6439 51.8004 43.0785 51.9583 42.4103L52.484 39.9438C52.6418 39.2756 52.5893 38.7102 52.4315 38.1964C52.2211 37.6825 51.9057 37.3227 51.3797 37.0659C50.8538 36.8088 50.2227 36.6548 49.4339 36.6548ZM47.6983 44.8259C46.7519 44.8259 46.1206 44.6203 45.7527 44.2092C45.3845 43.7979 45.2793 43.1813 45.4371 42.4103L45.9631 40.0465C46.1206 39.2756 46.4888 38.659 47.0673 38.2991C47.5933 37.888 48.3294 37.6825 49.2235 37.6825C50.1174 37.6825 50.7487 37.888 51.1169 38.2991C51.4848 38.7617 51.5901 39.3784 51.4323 40.0978L50.9063 42.4618C50.7487 43.2328 50.3805 43.8494 49.802 44.2092C49.2761 44.5688 48.54 44.7744 47.6983 44.8259ZM49.171 37.8368C48.3821 37.8368 47.6983 38.0423 47.2251 38.4019C46.6991 38.7617 46.3837 39.3271 46.2259 40.0465L45.6999 42.4103C45.5421 43.13 45.6474 43.6439 45.9631 44.0034C46.2784 44.3633 46.857 44.5688 47.6983 44.5688C48.54 44.5688 49.171 44.3633 49.6967 44.0034C50.2227 43.6439 50.5384 43.0785 50.6959 42.3591L51.2219 39.995C51.3797 39.3271 51.2744 38.7617 50.9591 38.4019C50.6434 38.0423 50.0124 37.8368 49.171 37.8368Z" fill="white"/>
<path d="M59.7416 42.1521L59.058 45.2356C59.0055 45.4411 58.9002 45.5954 58.7424 45.6982C58.5848 45.8009 58.427 45.9037 58.2166 45.9037C58.0063 45.9037 57.901 45.8525 57.7959 45.6982C57.6906 45.5954 57.6906 45.4411 57.7432 45.2356L58.427 42.1521H58.3217C57.901 42.1521 57.4803 42.2549 57.1121 42.4607C56.744 42.6662 56.4811 42.9746 56.2182 43.3856C56.0604 43.6425 55.8501 44.0023 55.5872 44.4649C55.3241 44.9272 55.0087 45.2356 54.6405 45.4926C54.2723 45.7497 53.8517 45.8525 53.3782 45.8525C53.1153 45.8525 52.9575 45.8009 52.8525 45.6982C52.7472 45.5954 52.6946 45.4411 52.7472 45.2871C52.8525 44.876 53.1153 44.7217 53.6413 44.7217C53.6938 44.7217 53.7464 44.6704 53.7991 44.6189C53.8517 44.5677 53.9567 44.4649 54.0095 44.3621C54.2723 43.9508 54.4302 43.5912 54.5352 43.3341C54.7456 42.923 55.0612 42.5635 55.4294 42.1521C55.8501 41.741 56.2707 41.4842 56.744 41.2787C56.5864 41.0216 56.376 40.6105 56.1655 40.0966C55.9551 39.5313 55.7448 39.0687 55.5872 38.7091C55.4294 38.4008 55.219 38.2465 55.0087 38.1952C54.7456 38.1952 54.588 38.1437 54.4827 38.0409C54.3774 37.9382 54.3249 37.7841 54.3774 37.6298C54.4827 37.27 54.7456 37.0645 55.219 37.0645C55.5872 37.0645 55.9551 37.1672 56.2707 37.4243C56.5864 37.6813 56.8493 38.0409 57.1121 38.5035C57.2699 38.8631 57.4278 39.2229 57.6381 39.6855C57.7959 40.0966 57.9535 40.4562 58.1113 40.6618C58.2166 40.9188 58.3744 41.0216 58.532 41.0216H58.6373L59.3736 37.7841C59.4262 37.5786 59.5312 37.4243 59.689 37.27C59.8469 37.1672 60.0047 37.0645 60.215 37.0645C60.6357 37.0645 60.8461 37.27 60.741 37.7326L60.0047 40.9703H60.1097C60.215 40.9703 60.4254 40.8676 60.6882 40.6105C60.8986 40.405 61.2142 40.0966 61.5824 39.634C62.0031 39.1202 62.4238 38.7091 62.7394 38.3492C63.0548 37.9897 63.423 37.7326 63.7911 37.4755C64.2643 37.2187 64.6325 37.0645 65.0532 37.0645C65.3163 37.0645 65.4739 37.116 65.5792 37.2187C65.6842 37.3215 65.737 37.4755 65.6842 37.6298C65.6317 37.7841 65.5267 37.9382 65.4214 38.0409C65.2635 38.1437 65.0532 38.1952 64.7903 38.1952C64.58 38.1952 64.2643 38.4008 64.0015 38.7091C63.6858 39.0174 63.2651 39.48 62.7919 40.0451C62.3712 40.559 62.0031 40.9703 61.6874 41.2272C61.9506 41.3814 62.2134 41.5355 62.4238 41.741C62.6341 41.9466 62.7919 42.2036 62.8445 42.4607C63.0023 42.9745 63.1073 43.4884 63.1073 44.0023C63.1073 44.2078 63.1073 44.3621 63.1601 44.5162C63.2126 44.6189 63.2651 44.6704 63.3704 44.6704C63.5808 44.6704 63.7911 44.7217 63.8962 44.8245C64.0015 44.9272 64.054 45.0815 64.0015 45.2356C63.8962 45.6467 63.5808 45.8009 63.0548 45.8009C62.5816 45.8009 62.2659 45.6982 61.9506 45.4411C61.6874 45.1843 61.5296 44.876 61.4771 44.4134C61.4771 44.2593 61.4246 44.1051 61.4246 44.0535C61.372 43.6425 61.3193 43.2829 61.2667 43.0773C61.2142 42.8203 61.1089 42.6147 60.8986 42.4607C60.6357 42.2036 60.2675 42.1009 59.7943 42.1009L59.7416 42.1521Z" fill="white"/>
<path d="M63.0558 46.0121C62.5823 46.0121 62.1616 45.8578 61.8988 45.601C61.5831 45.3439 61.4256 44.9841 61.3728 44.5217C61.3728 44.3675 61.3203 44.2134 61.3203 44.1106C61.2677 43.6995 61.2152 43.391 61.1624 43.1342C61.1099 42.9286 61.0046 42.7231 60.847 42.5175C60.6367 42.312 60.2685 42.2092 59.8478 42.2092L59.164 45.1899C59.1115 45.3954 59.0062 45.601 58.8486 45.7038C58.6908 45.8578 58.4805 45.9093 58.2701 45.9093C58.0598 45.9093 57.8494 45.8065 57.7441 45.7038C57.6389 45.5495 57.5863 45.3954 57.6389 45.1384L58.2701 42.1577C57.8494 42.1577 57.4813 42.2605 57.1656 42.466C56.8502 42.6716 56.5346 42.9799 56.3243 43.3397C56.1664 43.5968 55.9561 43.9564 55.6932 44.419C55.4301 44.8813 55.1147 45.2412 54.694 45.4982C54.3259 45.755 53.8524 45.8578 53.4317 45.8578C53.1688 45.8578 52.9585 45.8065 52.8007 45.6522C52.6956 45.5495 52.5903 45.3954 52.6429 45.1384C52.6956 44.8301 52.9585 44.4702 53.6421 44.4702C53.6421 44.4702 53.6948 44.4702 53.7474 44.419C53.7999 44.3675 53.8524 44.2647 53.9052 44.1619C54.168 43.7508 54.3259 43.391 54.4309 43.1342C54.6413 42.7231 54.9569 42.312 55.3776 41.9009C55.7458 41.5411 56.1664 41.2327 56.5871 41.0785C56.4293 40.8216 56.2717 40.4618 56.0614 39.9479C55.8508 39.3826 55.6405 38.9202 55.4829 38.5604C55.3251 38.3033 55.1672 38.1493 55.0094 38.1493C54.7466 38.1493 54.5362 38.0465 54.4309 37.9437C54.3259 37.841 54.2206 37.6867 54.2733 37.4299C54.3259 37.1215 54.5362 36.7617 55.2198 36.7617C55.6405 36.7617 56.0086 36.916 56.3768 37.1728C56.6924 37.4299 57.0078 37.7895 57.2182 38.3033C57.376 38.6632 57.5338 39.023 57.7441 39.4853C57.902 39.8964 58.0598 40.2563 58.2174 40.4618C58.3227 40.6674 58.4277 40.7701 58.533 40.7701L59.2166 37.6354C59.2693 37.3784 59.3744 37.2243 59.5322 37.07C59.69 36.916 59.9004 36.8645 60.1107 36.8645C60.3736 36.8645 60.5314 36.916 60.6367 37.07C60.7417 37.2243 60.7943 37.4299 60.7417 37.6867L60.0582 40.7701C60.1107 40.7701 60.2685 40.6674 60.5314 40.4618C60.7417 40.2563 61.0574 39.9479 61.4256 39.4853C61.8462 38.9715 62.2669 38.5091 62.5823 38.2005C62.898 37.841 63.2661 37.5839 63.6868 37.3271C64.16 37.0188 64.5807 36.8645 65.0017 36.916C65.2645 36.916 65.4749 36.9673 65.6327 37.1215C65.7905 37.2756 65.843 37.4299 65.7905 37.6354C65.7377 37.841 65.6327 37.995 65.4749 38.0978C65.3171 38.2006 65.1067 38.2521 64.7913 38.3033C64.5807 38.3033 64.3704 38.4576 64.055 38.7659C63.7393 39.0742 63.3187 39.5369 62.8454 40.1022C62.4773 40.5646 62.1091 40.9244 61.8462 41.1812C62.0566 41.284 62.2669 41.4896 62.4773 41.6951C62.6876 41.9522 62.8454 42.2092 62.898 42.466C63.0558 42.9799 63.1608 43.494 63.1608 44.0079C63.1608 44.2134 63.1608 44.3675 63.2136 44.4702C63.2136 44.5217 63.2661 44.573 63.3187 44.573C63.5815 44.573 63.7921 44.6245 63.8972 44.7785C64.055 44.9328 64.1075 45.0871 64.055 45.2927C64.0025 45.6522 63.7919 46.0121 63.0558 46.0121ZM59.6375 42.0549H59.8478C60.3736 42.0549 60.7417 42.2092 61.0046 42.4148C61.2152 42.6203 61.3203 42.8259 61.3728 43.0827C61.4256 43.3397 61.4781 43.648 61.5306 44.0591C61.5306 44.1619 61.5306 44.2647 61.5831 44.419C61.6359 44.8301 61.7409 45.1384 62.0038 45.3954C62.2669 45.601 62.5823 45.755 63.0033 45.755C63.4765 45.755 63.7393 45.601 63.8446 45.2412C63.8972 45.0871 63.8446 44.9841 63.7393 44.9328C63.6343 44.8301 63.4765 44.7785 63.2661 44.7785C63.1608 44.7785 63.0558 44.7273 62.9505 44.5217C62.898 44.419 62.898 44.2134 62.898 44.0079C62.898 43.5453 62.7927 43.0314 62.6351 42.5175C62.5823 42.2605 62.4248 42.0549 62.2669 41.8494C62.0566 41.6438 61.8462 41.4895 61.5831 41.3355L61.4256 41.284L61.5306 41.1812C61.8462 40.9244 62.2144 40.5133 62.6351 39.9992C63.1083 39.3826 63.529 38.9202 63.8446 38.6119C64.16 38.2521 64.4232 38.0978 64.7385 38.0978C64.9489 38.0978 65.1592 38.0465 65.2645 37.9437C65.3696 37.841 65.4749 37.7382 65.5274 37.5839C65.5799 37.4299 65.5274 37.3271 65.4223 37.2756C65.3171 37.1728 65.1592 37.1215 64.9489 37.1215C64.5807 37.1215 64.2128 37.2756 63.7919 37.5326C63.4239 37.7895 63.0558 38.0465 62.7401 38.4061C62.4248 38.7147 62.0566 39.177 61.5831 39.6909C61.1624 40.1535 60.8996 40.4618 60.6892 40.6674C60.3736 40.9244 60.1632 41.0785 60.0582 41.0785H59.8478L60.5839 37.6867C60.6367 37.4811 60.6367 37.3271 60.5314 37.2243C60.4789 37.1215 60.3736 37.1215 60.1632 37.1215C60.0054 37.1215 59.8478 37.1728 59.7425 37.2756C59.6375 37.3784 59.5322 37.5326 59.4797 37.7382L58.7433 41.0785H58.5855C58.3752 41.0785 58.2174 40.9244 58.1123 40.6161C57.9545 40.4105 57.7967 40.0507 57.6389 39.6396C57.4813 39.2285 57.2709 38.8174 57.1131 38.4576C56.9028 37.995 56.6397 37.6867 56.3243 37.4299C56.0086 37.2243 55.6932 37.07 55.3251 37.07C54.9044 37.07 54.694 37.2243 54.5887 37.5326C54.5362 37.6867 54.5887 37.7895 54.6413 37.841C54.7466 37.9437 54.9044 37.995 55.1147 37.995C55.3776 37.995 55.5879 38.2005 55.7983 38.5604C55.9561 38.8687 56.1664 39.3313 56.3768 39.9479C56.5871 40.5133 56.7449 40.8729 56.9553 41.13L57.0078 41.2327L56.9028 41.284C56.4293 41.4383 56.0086 41.7466 55.6405 42.1064C55.2725 42.466 54.9569 42.8771 54.7465 43.2369C54.6413 43.494 54.4309 43.8023 54.168 44.2647C54.1155 44.3675 54.0102 44.4702 53.9577 44.573C53.8524 44.6758 53.7474 44.6758 53.6948 44.6758C53.2214 44.6758 53.011 44.8301 52.906 45.1899C52.8532 45.3439 52.906 45.4467 53.011 45.4982C53.1163 45.601 53.2741 45.6522 53.4845 45.6522C53.9052 45.6522 54.2733 45.5495 54.6413 45.2927C55.0094 45.0871 55.3251 44.7273 55.5354 44.3162C55.7983 43.8536 56.0086 43.494 56.1664 43.2369C56.4293 42.8259 56.6924 42.466 57.0606 42.2605C57.4285 42.0549 57.8494 41.9522 58.3227 41.9009H58.5855L57.8494 45.1384C57.7967 45.2927 57.8494 45.3954 57.902 45.4982C57.9545 45.601 58.0598 45.6522 58.2174 45.6522C58.3752 45.6522 58.533 45.601 58.6908 45.4982C58.8486 45.3954 58.9012 45.2412 58.9537 45.0871L59.6375 42.0549Z" fill="white"/>
<path d="M66.9459 45.236C66.8409 45.6986 66.578 45.9042 66.1571 45.9042C65.7364 45.9042 65.5788 45.6986 65.6839 45.236L67.4194 37.322C67.5244 36.8594 67.7876 36.6538 68.1555 36.6538C68.5764 36.6538 68.7867 36.8594 68.6815 37.322L67.9979 40.3026H73.2042L73.8878 37.2704C73.9931 36.8081 74.256 36.6025 74.6766 36.6025C75.0973 36.6025 75.2552 36.8081 75.1501 37.2704L73.4146 45.1847C73.3093 45.6471 73.0464 45.8527 72.6257 45.8527C72.205 45.8527 72.0472 45.6471 72.1525 45.1847L72.9939 41.4847H67.7875L66.9459 45.236Z" fill="white"/>
<path d="M72.6259 46.0103C72.3631 46.0103 72.2053 45.9588 72.1 45.8048C71.9949 45.6505 71.9421 45.445 71.9949 45.1879L72.7838 41.5906H67.7878L66.9989 45.2394C66.8936 45.7533 66.578 46.0103 66.1048 46.0103C65.8944 46.0103 65.6841 45.9588 65.5788 45.8048C65.4737 45.6505 65.4212 45.445 65.4737 45.1879L67.2093 37.2739C67.3668 36.6572 67.735 36.5029 68.0506 36.5029C68.3135 36.5029 68.4713 36.5544 68.5764 36.7085C68.6817 36.8628 68.7342 37.0683 68.6817 37.3254L68.0506 40.203H73.0466L73.6777 37.2739C73.8355 36.6572 74.2562 36.5029 74.5718 36.5029C74.7822 36.5029 74.9925 36.5544 75.0976 36.7085C75.2029 36.8628 75.2554 37.0683 75.2029 37.3254L73.4673 45.2394C73.3623 45.7533 73.0992 46.0103 72.6259 46.0103ZM67.6299 41.385H73.0466L72.2053 45.2394C72.1525 45.445 72.1525 45.5992 72.2578 45.6505C72.3103 45.702 72.4156 45.7533 72.5734 45.7533C72.9413 45.7533 73.1519 45.5477 73.257 45.1879L74.9925 37.2739C75.045 37.0683 75.045 36.914 74.94 36.8112C74.8872 36.76 74.7822 36.7085 74.6243 36.7085C74.2562 36.7085 74.0458 36.914 73.9405 37.3254L73.257 40.4086H67.8403L68.5239 37.2739C68.5764 37.0683 68.5764 36.914 68.4713 36.8112C68.4188 36.7085 68.261 36.7085 68.1032 36.7085C67.7878 36.7085 67.5772 36.914 67.4721 37.3254L65.7366 45.2394C65.6841 45.445 65.6841 45.5992 65.7891 45.6505C65.8419 45.702 65.9469 45.7533 66.1048 45.7533C66.4729 45.7533 66.6833 45.5477 66.7883 45.1879L67.6299 41.385Z" fill="white"/>
<path d="M83.7239 42.5656C83.5661 43.2338 83.3032 43.8504 82.83 44.3643C82.4093 44.8781 81.8833 45.2892 81.1997 45.5463C80.5685 45.8034 79.8324 45.9574 79.0435 45.9574C78.2547 45.9574 77.6236 45.8034 77.0977 45.5463C76.5717 45.2892 76.2035 44.8781 75.9932 44.3643C75.7828 43.8504 75.7828 43.2338 75.9406 42.5656L76.4666 40.0988C76.6244 39.4309 76.8873 38.814 77.3605 38.3001C77.7812 37.7863 78.3072 37.3752 78.9908 37.1181C79.622 36.8613 80.3581 36.707 81.147 36.707C81.9358 36.707 82.5669 36.8613 83.0928 37.1181C83.6188 37.3752 83.987 37.7863 84.1973 38.3001C84.4077 38.814 84.4077 39.4309 84.2499 40.0988L83.7239 42.5656ZM80.9366 37.8378C80.0952 37.8378 79.4117 38.0433 78.8857 38.4029C78.3597 38.814 77.9916 39.3794 77.834 40.0988L77.308 42.4628C77.1502 43.2338 77.2555 43.7989 77.5709 44.1587C77.939 44.5698 78.5175 44.7241 79.3589 44.7754C80.2005 44.7754 80.8841 44.5698 81.4101 44.2102C81.9358 43.7991 82.304 43.2338 82.4618 42.5144L82.9878 40.1503C83.1454 39.4309 83.0403 38.8655 82.7247 38.4544C82.4093 38.0433 81.778 37.8378 80.9366 37.8378Z" fill="white"/>
<path d="M79.2011 46.0621H79.1486C78.3597 46.0621 77.6762 45.9078 77.1502 45.5995C76.6244 45.2912 76.2035 44.8801 75.9932 44.3662C75.7828 43.8521 75.7828 43.1842 75.9406 42.516L76.4666 40.0492C76.6244 39.3298 76.9398 38.7132 77.3605 38.1993C77.7812 37.6854 78.3597 37.2741 78.9908 36.9658C79.622 36.6575 80.3581 36.5547 81.147 36.5547C81.9358 36.5547 82.6196 36.709 83.1454 37.0173C83.6714 37.3256 84.092 37.7367 84.3024 38.2506C84.5127 38.7644 84.5127 39.4326 84.3549 40.1007L83.8292 42.5676C83.6714 43.287 83.3557 43.9036 82.935 44.4175C82.5143 44.9313 81.9358 45.3424 81.3048 45.651C80.6738 45.9078 79.9374 46.0621 79.2011 46.0621ZM81.147 36.7602C80.4109 36.7602 79.7271 36.9145 79.0961 37.1713C78.465 37.4284 77.939 37.8395 77.5183 38.3533C77.0977 38.8672 76.8348 39.4326 76.677 40.1007L76.151 42.5676C75.9932 43.2355 76.0459 43.8008 76.2035 44.3147C76.4138 44.8286 76.7295 45.1884 77.2555 45.4452C77.7812 45.7023 78.4125 45.8566 79.1486 45.8566C79.8849 45.8566 80.6212 45.7023 81.2523 45.4452C81.8833 45.1884 82.4093 44.7773 82.83 44.2634C83.2507 43.7493 83.5135 43.1842 83.6714 42.516L84.1973 40.0492C84.3549 39.3813 84.3024 38.8159 84.1446 38.3021C83.9342 37.7882 83.6188 37.4284 83.0928 37.1713C82.5669 36.9145 81.9358 36.7602 81.147 36.7602ZM79.4117 44.8801C78.5175 44.8801 77.834 44.6745 77.4658 44.2634C77.0977 43.8521 76.9924 43.2355 77.1502 42.4648L77.6762 40.1007C77.834 39.3298 78.2019 38.7132 78.7804 38.3533C79.3064 37.9423 80.0427 37.7367 80.8841 37.7367H80.9366C81.8308 37.7367 82.4618 37.9423 82.83 38.3533C83.1981 38.8159 83.3032 39.4326 83.1454 40.152L82.6196 42.516C82.4618 43.287 82.0936 43.9036 81.5151 44.2634C80.9894 44.6745 80.2531 44.8801 79.4117 44.8801ZM80.8841 37.9423C80.0952 37.9423 79.4117 38.1478 78.9382 38.5076C78.4125 38.8672 78.0969 39.4326 77.939 40.152L77.413 42.516C77.2555 43.2355 77.3605 43.7493 77.6762 44.1092C77.9916 44.469 78.5701 44.6745 79.4117 44.6745C80.2005 44.6745 80.8841 44.469 81.4101 44.1092C81.9358 43.7493 82.2515 43.1842 82.4093 42.4648L82.935 40.1007C83.0928 39.4326 82.9878 38.8672 82.6722 38.5076C82.3565 38.1478 81.7255 37.9423 80.8841 37.9423Z" fill="white"/>
<path d="M88.7189 45.8512C87.7197 45.8512 86.9834 45.7484 86.4574 45.5944C85.9317 45.4401 85.616 45.1318 85.4582 44.7722C85.3004 44.4124 85.3004 43.847 85.4582 43.1791L86.2996 39.4275C86.4574 38.7593 86.6678 38.2455 86.9834 37.8859C87.299 37.5261 87.7197 37.2177 88.2982 37.0635C88.8765 36.9094 89.5603 36.8066 90.4542 36.8066H92.8208C93.3993 36.8066 93.82 36.9607 94.0303 37.2177C94.2407 37.4745 94.2934 37.9372 94.1881 38.5025C94.0831 39.0164 93.82 39.2732 93.3993 39.2732C93.1889 39.2732 93.0839 39.2219 92.9786 39.0677C92.8735 38.9136 92.8735 38.7593 92.9261 38.5025C92.9786 38.2455 92.9786 38.0914 92.9261 38.0399C92.8735 37.9372 92.7157 37.9372 92.5054 37.9372H90.2439C89.5603 37.9372 89.0343 37.9887 88.7189 38.0399C88.4033 38.0914 88.1404 38.2455 87.9826 38.451C87.8248 38.6566 87.667 38.9649 87.5619 39.4275L86.7205 43.1276C86.6152 43.5902 86.6152 43.8985 86.6678 44.1041C86.7731 44.3096 86.9834 44.4639 87.299 44.5152C87.667 44.5667 88.1929 44.6179 88.9818 44.6179H90.9802C91.1905 44.6179 91.3484 44.5667 91.4534 44.5152C91.5587 44.4124 91.6112 44.2581 91.6638 44.0525C91.7165 43.7957 91.8216 43.6415 91.9269 43.4874C92.0847 43.3331 92.2423 43.2819 92.4526 43.2819C92.8735 43.2819 93.0311 43.5387 92.9261 44.1041C92.8208 44.6694 92.5579 45.1318 92.1897 45.3889C91.8216 45.6457 91.4009 45.7999 90.7699 45.7999L88.7189 45.8512Z" fill="white"/>
<path d="M90.8743 46.0121H88.7183C87.7191 46.0121 86.9828 45.9093 86.4568 45.755C85.931 45.601 85.5629 45.2927 85.3525 44.8813C85.1947 44.4702 85.1947 43.9051 85.2998 43.2369L86.1414 39.4853C86.299 38.8174 86.5095 38.2521 86.8775 37.8922C87.1931 37.4811 87.6663 37.2243 88.2448 37.0188C88.8233 36.8645 89.5597 36.7617 90.4536 36.7617H92.8201C93.4512 36.7617 93.8721 36.916 94.135 37.2243C94.3978 37.5326 94.4504 37.995 94.2928 38.6119C94.135 39.3313 93.7143 39.4853 93.3986 39.4853C93.1358 39.4853 92.9779 39.3826 92.8729 39.2285C92.7676 39.0742 92.7676 38.8687 92.8201 38.6119C92.8729 38.3548 92.8201 38.2521 92.8201 38.2521C92.8201 38.2521 92.7151 38.2005 92.452 38.1493H90.1907C89.5071 38.1493 88.9812 38.2005 88.6655 38.2521C88.3501 38.3033 88.1398 38.4576 87.982 38.6119C87.8241 38.8174 87.7191 39.1258 87.6138 39.5368L86.7724 43.2369C86.6671 43.648 86.6671 43.9564 86.7199 44.1619C86.7724 44.3162 86.9828 44.4702 87.2982 44.5217C87.6138 44.573 88.1923 44.6245 88.9286 44.6245H90.927C91.1374 44.6245 91.2952 44.573 91.3477 44.5217C91.4002 44.4702 91.4528 44.3675 91.5581 44.1106C91.6106 43.8536 91.7159 43.648 91.8737 43.494C92.0313 43.3397 92.2416 43.2882 92.452 43.2882C92.6623 43.2882 92.8201 43.3397 92.9254 43.494C93.0305 43.648 93.0832 43.9051 93.0305 44.2134C92.8729 44.8301 92.6623 45.2412 92.2944 45.5495C91.9262 45.8578 91.4528 46.0121 90.8743 46.0121ZM88.7183 45.755H90.8217C91.4002 45.755 91.8209 45.601 92.1366 45.3439C92.452 45.0871 92.6623 44.6758 92.8201 44.1106C92.8729 43.8536 92.8729 43.648 92.7676 43.5453C92.7151 43.494 92.6098 43.4425 92.452 43.4425C92.2944 43.4425 92.1366 43.494 92.0313 43.5968C91.9262 43.6995 91.8209 43.8536 91.7684 44.1106C91.7159 44.3675 91.6106 44.5217 91.5055 44.6245C91.4002 44.7273 91.1899 44.7785 90.927 44.7785H88.9286C88.1398 44.7785 87.5613 44.7273 87.2456 44.6758C86.8775 44.573 86.6146 44.419 86.5095 44.1619C86.4042 43.9564 86.4042 43.5968 86.5095 43.1342L87.3509 39.4341C87.456 38.9715 87.6138 38.6632 87.7716 38.4061C87.9294 38.2005 88.2448 38.0465 88.613 37.9437C88.9812 37.8922 89.4544 37.841 90.1907 37.841H92.452C92.7151 37.841 92.8729 37.8922 92.978 37.995C93.0832 38.0978 93.0832 38.3033 93.0305 38.5604C92.978 38.7659 92.978 38.9202 93.0833 39.023C93.1358 39.1258 93.2408 39.177 93.3986 39.177C93.7668 39.177 93.9772 38.9715 94.0824 38.4576C94.1875 37.8922 94.1875 37.4811 93.9771 37.2243C93.7668 36.9673 93.3986 36.8645 92.8729 36.8645H90.5063C89.6122 36.8645 88.9286 36.9673 88.3501 37.1215C87.8241 37.2756 87.4034 37.5326 87.0878 37.8922C86.7724 38.2521 86.5621 38.7659 86.4042 39.4341L85.5629 43.1854C85.4051 43.8536 85.4051 44.3675 85.5629 44.7273C85.7207 45.0871 86.0361 45.3439 86.5095 45.4982C87.0353 45.7038 87.7716 45.755 88.7183 45.755Z" fill="white"/>
<path d="M102.077 36.8643C102.55 36.8643 102.76 37.0698 102.655 37.4296C102.55 37.8407 102.287 37.9948 101.814 37.9948H99.7102L98.0799 45.3437C98.0274 45.5492 97.9221 45.7035 97.7643 45.8063C97.6065 45.9091 97.3961 46.0118 97.1858 46.0118C96.9754 46.0118 96.8176 45.9603 96.7126 45.8576C96.6073 45.7548 96.6073 45.6007 96.66 45.3952L98.2903 38.0463H96.1341C95.9237 38.0463 95.7134 37.9948 95.6081 37.892C95.503 37.7892 95.4505 37.6352 95.503 37.4809C95.5556 37.3269 95.6608 37.1726 95.7659 37.0698C95.9237 36.967 96.1341 36.9155 96.3444 36.9155L102.077 36.8643Z" fill="white"/>
<path d="M97.187 46.1117C96.9242 46.1117 96.7663 46.0602 96.6088 45.9061C96.5035 45.7518 96.4509 45.5978 96.5035 45.3407L98.0812 38.1461H96.0828C95.8199 38.1461 95.6093 38.0946 95.5043 37.9406C95.399 37.8378 95.2939 37.6835 95.399 37.4267C95.4517 37.2211 95.5568 37.0669 95.7146 36.9126C95.8724 36.8098 96.0828 36.7585 96.3456 36.707H102.025C102.341 36.707 102.551 36.7585 102.656 36.9126C102.762 37.0154 102.762 37.2211 102.762 37.4267C102.709 37.735 102.499 38.0946 101.815 38.0946H99.7639L98.1862 45.3407C98.1337 45.5463 98.0287 45.7518 97.8183 45.8546C97.6605 46.0602 97.3974 46.1117 97.187 46.1117ZM96.3456 36.9641C96.1353 36.9641 95.9775 37.0154 95.8724 37.1181C95.7671 37.2211 95.6621 37.3239 95.6093 37.478C95.5568 37.6322 95.6093 37.735 95.6621 37.7863C95.7671 37.8891 95.8724 37.9406 96.0828 37.9406H98.3966L96.7663 45.392C96.7138 45.5463 96.7663 45.7006 96.8191 45.7518C96.8716 45.8546 97.0295 45.9061 97.187 45.9061C97.3974 45.9061 97.5552 45.8546 97.6605 45.7518C97.8183 45.6491 97.8708 45.495 97.9234 45.3407L99.6064 37.8891H101.815C102.236 37.8891 102.499 37.735 102.551 37.3752C102.604 37.2211 102.551 37.1181 102.499 37.0669C102.446 36.9641 102.288 36.9126 102.025 36.9126L96.3456 36.9641Z" fill="white"/>
<path d="M104.495 41.4381L103.758 44.7783H109.491C109.754 44.7783 109.911 44.8298 110.017 44.9326C110.122 45.0354 110.174 45.1894 110.122 45.3952C110.069 45.5492 109.964 45.7035 109.859 45.8063C109.701 45.9091 109.491 45.9603 109.28 45.9603H102.917C102.707 45.9603 102.601 45.9091 102.496 45.7548C102.444 45.652 102.391 45.4465 102.444 45.2409L104.126 37.5837C104.179 37.3781 104.284 37.1726 104.39 37.0698C104.547 36.967 104.705 36.8643 104.863 36.8643H111.226C111.489 36.8643 111.647 36.9155 111.752 37.0185C111.857 37.1213 111.91 37.2754 111.857 37.4809C111.805 37.6352 111.699 37.7892 111.594 37.892C111.436 37.9948 111.226 38.0463 111.016 38.0463H105.283L104.81 40.256H108.702C108.965 40.256 109.175 40.3075 109.28 40.4103C109.386 40.5131 109.438 40.6671 109.386 40.8727C109.28 41.2325 108.965 41.4381 108.439 41.4381H104.495Z" fill="white"/>
<path d="M109.228 46.0633H102.865C102.655 46.0633 102.444 45.9606 102.392 45.8065C102.287 45.6522 102.287 45.4467 102.339 45.1899L104.022 37.5326C104.075 37.2756 104.18 37.07 104.338 36.9673C104.496 36.8132 104.653 36.7617 104.864 36.7617H111.227C111.49 36.7617 111.7 36.8132 111.805 36.9673C111.963 37.1215 111.963 37.2756 111.911 37.5326C111.858 37.7382 111.753 37.8922 111.595 37.995C111.437 38.0978 111.227 38.1493 110.964 38.1493H105.337L104.916 40.1535H108.65C108.966 40.1535 109.176 40.205 109.334 40.359C109.492 40.5133 109.544 40.6674 109.492 40.9244C109.386 41.3355 109.018 41.5411 108.44 41.5923H104.653L103.97 44.6758H109.544C109.807 44.6758 110.017 44.7273 110.123 44.8813C110.28 45.0356 110.28 45.1899 110.228 45.4467C110.175 45.6522 110.07 45.8065 109.912 45.9093C109.702 46.0121 109.492 46.0633 109.228 46.0633ZM104.864 36.9673C104.706 36.9673 104.601 37.0188 104.443 37.1215C104.338 37.2243 104.232 37.3784 104.18 37.5839L102.497 45.2412C102.444 45.4467 102.444 45.601 102.55 45.6522C102.602 45.755 102.707 45.8065 102.865 45.8065H109.228C109.439 45.8065 109.597 45.755 109.754 45.7038C109.86 45.601 109.965 45.4982 110.017 45.3439C110.07 45.1899 110.017 45.0356 109.965 44.9841C109.86 44.8813 109.754 44.8813 109.544 44.8813H103.707L104.496 41.3355H108.44C108.913 41.3355 109.176 41.1812 109.281 40.8729C109.334 40.7189 109.281 40.6161 109.176 40.5133C109.071 40.4105 108.913 40.4105 108.65 40.359H104.653L105.179 37.9437H110.964C111.174 37.9437 111.332 37.8922 111.49 37.841C111.595 37.7382 111.7 37.6354 111.753 37.4811C111.805 37.3271 111.753 37.1728 111.7 37.1215C111.595 37.0188 111.49 37.0188 111.28 37.0188L104.864 36.9673Z" fill="white"/>
<path d="M111.912 45.3899L113.648 37.4758C113.753 37.0132 114.016 36.8077 114.437 36.8077C114.857 36.8077 115.015 37.0647 114.91 37.5273L113.49 43.951L120.221 37.1675C120.485 36.9104 120.695 36.8077 120.958 36.8077C121.378 36.8077 121.484 37.0132 121.378 37.4758L119.643 45.3899C119.538 45.8525 119.275 46.058 118.854 46.058C118.433 46.058 118.276 45.8525 118.381 45.4414L119.801 38.9149L113.122 45.6469C112.964 45.8012 112.859 45.904 112.754 45.9552C112.649 46.0068 112.544 46.0068 112.386 46.0068C111.965 46.058 111.807 45.8012 111.912 45.3899ZM116.645 37.116C116.067 37.116 115.699 36.9619 115.489 36.7049C115.331 36.4481 115.278 35.9342 115.436 35.2661L115.594 34.6494H116.856L116.698 35.4716C116.645 35.6772 116.645 35.7799 116.698 35.8314C116.751 35.8827 116.856 35.8827 117.066 35.9342H118.591C118.802 35.9342 118.907 35.9342 118.959 35.8827C119.012 35.8314 119.065 35.7287 119.117 35.5229L119.275 34.7007H120.537L120.379 35.3173C120.221 35.9855 120.011 36.4993 119.696 36.7564C119.38 37.0132 118.959 37.1675 118.381 37.1675L116.645 37.116Z" fill="white"/>
<path d="M118.853 46.1654C118.59 46.1654 118.432 46.1142 118.327 45.9599C118.222 45.8058 118.169 45.6516 118.222 45.3947L119.589 39.2791L113.226 45.7543C113.068 45.9086 112.91 46.0114 112.805 46.1142C112.7 46.1654 112.542 46.2169 112.384 46.2169C112.174 46.2169 112.016 46.1654 111.911 46.0114C111.806 45.8571 111.753 45.6516 111.806 45.3947L113.541 37.4804C113.699 36.8638 114.12 36.7095 114.435 36.7095C114.646 36.7095 114.803 36.761 114.909 36.9153C115.014 37.0693 115.066 37.2749 115.014 37.5832L113.699 43.6474L120.168 37.1209C120.431 36.8638 120.693 36.761 120.956 36.761C121.167 36.761 121.325 36.8123 121.43 36.9666C121.535 37.1209 121.588 37.3264 121.535 37.5832L119.799 45.4975C119.642 45.9086 119.326 46.1654 118.853 46.1654ZM120.01 38.5597L118.485 45.446C118.432 45.6516 118.432 45.7543 118.537 45.8571C118.59 45.9086 118.695 45.9599 118.905 45.9599C119.274 45.9599 119.484 45.7543 119.589 45.3947L121.325 37.4804C121.377 37.2749 121.377 37.1209 121.272 37.0181C121.219 36.9666 121.114 36.9153 120.956 36.9153C120.746 36.9153 120.536 37.0181 120.325 37.2236L113.278 44.3155L114.803 37.532C114.856 37.3264 114.856 37.1209 114.751 37.0693C114.698 37.0181 114.593 36.9666 114.435 36.9666C114.067 36.9666 113.857 37.1721 113.752 37.5832L112.016 45.4975C111.964 45.7031 111.964 45.8571 112.069 45.9086C112.121 45.9599 112.226 46.0114 112.384 46.0114C112.542 46.0114 112.647 46.0114 112.7 45.9599C112.752 45.9086 112.858 45.8571 113.068 45.6516L120.01 38.5597ZM118.432 37.2749H116.644C116.013 37.2749 115.592 37.1209 115.382 36.8123C115.172 36.504 115.172 35.9901 115.329 35.2707L115.487 34.6025H116.96L116.749 35.579C116.697 35.8361 116.697 35.8873 116.697 35.8873C116.697 35.8873 116.749 35.9388 116.96 35.9388H118.485C118.695 35.9388 118.8 35.8873 118.8 35.8873C118.8 35.8873 118.853 35.8361 118.905 35.579L119.116 34.654H120.588L120.431 35.3735C120.273 36.0929 120.01 36.6067 119.694 36.8638C119.484 37.1209 119.063 37.2236 118.432 37.2749ZM115.698 34.7568L115.592 35.2707C115.435 35.9388 115.435 36.4012 115.592 36.6067C115.75 36.8638 116.118 36.9666 116.644 36.9666H118.379C118.905 36.9666 119.379 36.8638 119.642 36.6067C119.905 36.3499 120.168 35.8873 120.273 35.2194L120.378 34.7568H119.326L119.168 35.4762C119.116 35.7333 119.063 35.8361 118.958 35.9388C118.853 35.9901 118.748 36.0416 118.485 36.0416H116.96C116.697 36.0416 116.539 35.9901 116.486 35.9388C116.434 35.8361 116.434 35.7333 116.486 35.4762L116.644 34.8081L115.698 34.7568Z" fill="white"/>
<path d="M179.826 50.7879V47.39H181.052C181.4 46.9588 181.773 46.0767 182.17 44.7444C182.568 43.412 182.821 41.7051 182.93 39.6233L183.044 37.3584H189.774V47.39H191.326V50.7879H190.02V48.6848H181.133V50.7879H179.826ZM184.237 40.6761C184.117 42.4022 183.883 43.8663 183.534 45.0689C183.185 46.2717 182.869 47.0461 182.586 47.391H188.385V38.654H184.382L184.237 40.6761Z" fill="black"/>
<path d="M192.994 51.9211V41.4038H194.301V42.2618C194.562 41.9604 194.92 41.7148 195.371 41.5252C195.823 41.3369 196.299 41.2422 196.8 41.2422C197.835 41.2422 198.66 41.5841 199.276 42.2692C199.891 42.9543 200.198 43.8417 200.198 44.9315C200.198 46.0534 199.845 46.9857 199.136 47.7307C198.428 48.4746 197.508 48.8469 196.375 48.8469C195.504 48.8469 194.813 48.6797 194.3 48.3448V51.9211H192.994ZM196.425 42.4558C195.553 42.4558 194.845 42.7907 194.301 43.4593V47.0677C194.868 47.4456 195.521 47.634 196.261 47.634C197.035 47.634 197.652 47.3858 198.115 46.8901C198.577 46.3946 198.809 45.7571 198.809 44.981C198.809 44.2261 198.597 43.6165 198.172 43.1529C197.747 42.6876 197.164 42.4558 196.425 42.4558Z" fill="black"/>
<path d="M208.461 41.4062L205.521 48.6875C204.998 49.949 204.535 50.8043 204.132 51.2522C203.729 51.6998 203.256 51.9242 202.711 51.9242C202.242 51.9242 201.779 51.7726 201.322 51.4709L201.746 50.4842C202.094 50.6461 202.367 50.727 202.563 50.727C202.867 50.727 203.143 50.5982 203.387 50.339C203.632 50.0797 203.88 49.6593 204.131 49.0762L204.294 48.6882L200.766 41.407H202.334L204.49 46.0345C204.534 46.1309 204.68 46.4978 204.931 47.1341C205.029 46.7782 205.144 46.4059 205.275 46.0178L206.974 41.4062H208.461Z" fill="black"/>
<path d="M209.801 48.6875V41.4062H214.457V42.6192H211.108V48.6865H209.801V48.6875Z" fill="black"/>
<path d="M216.065 47.7711C215.34 47.0539 214.979 46.1454 214.979 45.0446C214.979 43.9447 215.34 43.0352 216.065 42.318C216.789 41.6008 217.733 41.2422 218.899 41.2422C220.064 41.2422 221.008 41.6008 221.733 42.318C222.457 43.0352 222.819 43.9437 222.819 45.0446C222.819 46.1444 222.457 47.0539 221.733 47.7711C221.009 48.4883 220.064 48.8469 218.899 48.8469C217.733 48.8469 216.789 48.4883 216.065 47.7711ZM216.366 45.0446C216.366 45.7995 216.603 46.4194 217.077 46.9048C217.55 47.3905 218.157 47.633 218.898 47.633C219.638 47.633 220.246 47.3931 220.72 46.9131C221.193 46.4331 221.43 45.8106 221.43 45.0446C221.43 44.2896 221.193 43.6688 220.72 43.1834C220.246 42.6977 219.639 42.4551 218.898 42.4551C218.168 42.4551 217.564 42.695 217.085 43.175C216.606 43.656 216.366 44.2795 216.366 45.0446Z" fill="black"/>
<path d="M230.498 46.8727L230.906 47.8925C230.198 48.5288 229.278 48.8469 228.145 48.8469C226.958 48.8469 226.005 48.5021 225.287 47.8116C224.568 47.1209 224.209 46.1986 224.209 45.0446C224.209 43.9447 224.546 43.0352 225.222 42.318C225.897 41.6008 226.822 41.2422 227.998 41.2422C228.968 41.2422 229.779 41.552 230.433 42.1718C231.086 42.7926 231.413 43.5925 231.413 44.5746C231.413 44.9094 231.386 45.2008 231.331 45.4483H225.679C225.734 46.1277 225.992 46.662 226.456 47.0502C226.918 47.439 227.515 47.633 228.244 47.633C229.202 47.634 229.953 47.3801 230.498 46.8727ZM227.933 42.4558C227.279 42.4558 226.745 42.6371 226.332 42.9977C225.918 43.36 225.673 43.8253 225.597 44.3973H230.056C230.023 43.7929 229.819 43.3195 229.443 42.9736C229.068 42.6288 228.565 42.4558 227.933 42.4558Z" fill="black"/>
<path d="M235.9 50.8577V46.6911H237.215C237.577 46.2516 237.959 45.3511 238.363 43.991C238.766 42.6312 239.015 40.9556 239.108 38.9657L239.23 36.5352H246.837V46.6918H248.503V50.8585H246.487V48.6884H237.917V50.8585H235.9V50.8577ZM241.124 40.6493C241.019 42.0729 240.803 43.3521 240.475 44.4858C240.148 45.6207 239.851 46.3553 239.581 46.6911H244.699V38.5308H241.316L241.124 40.6493Z" fill="black"/>
<path d="M255.955 46.5L256.532 47.9069C255.762 48.5552 254.756 48.879 253.519 48.879C252.244 48.879 251.218 48.503 250.442 47.7507C249.664 46.9984 249.275 46.0089 249.275 44.7813C249.275 43.6125 249.657 42.6368 250.415 41.856C251.176 41.0746 252.187 40.6846 253.448 40.6846C254.488 40.6846 255.37 41.0231 256.094 41.6998C256.82 42.3765 257.181 43.2475 257.181 44.3123C257.181 44.7528 257.142 45.1114 257.06 45.3884H251.361C251.443 45.9675 251.701 46.4154 252.134 46.7335C252.566 47.0519 253.098 47.2108 253.73 47.2108C254.615 47.2118 255.358 46.9746 255.955 46.5ZM253.361 42.3508C252.214 42.3508 251.525 42.9184 251.292 44.0521H255.165C255.177 43.5657 255.018 43.1609 254.691 42.8374C254.364 42.5136 253.921 42.3508 253.361 42.3508Z" fill="black"/>
<path d="M263.735 48.6868V42.8714H261.648L261.596 43.7043C261.468 45.1049 261.255 46.1807 260.957 46.933C260.66 47.6853 260.286 48.192 259.837 48.4523C259.386 48.7123 258.787 48.843 258.039 48.843L257.865 46.8989C258.12 46.922 258.363 46.8503 258.591 46.6821C258.819 46.5138 259.04 46.1439 259.25 45.5702C259.461 44.9972 259.595 44.2422 259.652 43.3043L259.775 40.874H265.751V48.6868H263.735Z" fill="black"/>
<path d="M268.686 47.7239C267.895 46.9542 267.504 45.9731 267.504 44.7813C267.504 43.5895 267.898 42.6083 268.686 41.8386C269.474 41.0689 270.512 40.6846 271.798 40.6846C273.081 40.6846 274.119 41.0689 274.907 41.8386C275.697 42.6083 276.091 43.5895 276.091 44.7813C276.091 45.9741 275.695 46.9542 274.907 47.7239C274.119 48.4936 273.081 48.879 271.798 48.879C270.512 48.879 269.474 48.4936 268.686 47.7239ZM269.657 44.7813C269.657 45.4296 269.86 45.9648 270.261 46.3879C270.665 46.8108 271.176 47.0215 271.795 47.0215C272.427 47.0215 272.945 46.8164 273.346 46.4043C273.75 45.9932 273.951 45.4526 273.951 44.7813C273.951 44.133 273.747 43.6005 273.339 43.184C272.927 42.7675 272.414 42.5588 271.795 42.5588C271.188 42.5588 270.68 42.7648 270.271 43.1749C269.863 43.5868 269.657 44.122 269.657 44.7813Z" fill="black"/>
<path d="M229.85 1.4248H202.357V28.8905H229.85V1.4248Z" fill="#F3E700"/>
<path d="M225.854 14.5894C226.088 7.14435 232.211 1.18164 239.637 1.18164C247.064 1.18164 253.111 7.14435 253.346 14.5894V28.8946H225.854V14.5894Z" fill="#00E1BB"/>
<path fill-rule="evenodd" clip-rule="evenodd" d="M229.85 5.29199C227.475 7.6967 225.966 10.969 225.852 14.5926V28.8909H229.85V5.29199Z" fill="#60CFAF"/>
<path d="M194.815 1.4248C202.335 1.65692 208.357 7.71862 208.357 15.071C208.357 22.4233 202.335 28.4107 194.815 28.643H180.365V1.4248H194.815Z" fill="#FF7E86"/>
<path fill-rule="evenodd" clip-rule="evenodd" d="M202.359 3.88281C205.986 6.35838 208.358 10.4645 208.358 15.0792C208.358 19.6937 205.986 23.7706 202.359 26.2244V3.88281Z" fill="#E77188"/>
<path d="M276.09 15.1613C276.09 23.0187 269.767 29.389 261.968 29.389C254.168 29.389 247.846 23.0187 247.846 15.1613C247.846 7.30379 254.168 0.933594 261.968 0.933594C269.767 0.933594 276.09 7.30252 276.09 15.1613Z" fill="#5267FF"/>
<path fill-rule="evenodd" clip-rule="evenodd" d="M250.606 6.71875C252.248 8.92468 253.254 11.6422 253.346 14.5922V26.4374C250.001 23.8354 247.846 19.7552 247.846 15.1681C247.846 12.0042 248.871 9.08166 250.606 6.71875Z" fill="#2C68E1"/>
<path fill-rule="evenodd" clip-rule="evenodd" d="M153.541 51.8617V0.114258H154.445V51.8617H153.541Z" fill="black"/>
</g>
</g>
<defs>
<clipPath id="clip0_979_5286">
<rect width="276" height="52" fill="white"/>
</clipPath>
</defs>
</svg>
