<svg width="143" height="50" viewBox="0 0 143 50" fill="none" xmlns="http://www.w3.org/2000/svg">
<path fill-rule="evenodd" clip-rule="evenodd" d="M17.7547 23.3782H23.2818V3.074H17.7547V23.3782ZM14.7349 26.2725H26.2996V0.183105H14.7349V26.2725Z" fill="#2A2936"/>
<path fill-rule="evenodd" clip-rule="evenodd" d="M0.212097 31.9962H49.3685V29.1138H0.212097V31.9962Z" fill="#2A2936"/>
<path fill-rule="evenodd" clip-rule="evenodd" d="M3.22073 43.2597H17.4293V37.757H3.22073V43.2597ZM0.212097 49.4045H3.2207V46.1387H20.4387V34.8752H0.212097V49.4045Z" fill="#2A2936"/>
<path fill-rule="evenodd" clip-rule="evenodd" d="M37.8041 3.07398V26.2721H40.8219V8.86109L46.348 3.07628V26.2721H49.3688V0.183105H45.1271L40.8219 4.67671V0.183105H36.5821L29.2557 7.76635V26.2721H32.2773V8.86223L37.8041 3.07398Z" fill="#2A2936"/>
<path fill-rule="evenodd" clip-rule="evenodd" d="M26.3916 43.2597H34.7749V37.757H26.3916V43.2597ZM37.914 43.2597H46.3611V37.757H37.914V43.2597ZM23.3815 46.1387H34.7753V49.4045H37.9139V46.1387H49.3692V34.8752H23.3815V46.1387Z" fill="#2A2936"/>
<path fill-rule="evenodd" clip-rule="evenodd" d="M3.23339 8.86224L8.75828 3.07628V23.3785H3.23339V8.86224ZM8.75831 26.2721H11.7784V0.183105H7.5382L0.212585 7.76635V26.2721H8.75831Z" fill="#2A2936"/>
<rect x="63.1355" width="1.55285" height="49.6911" fill="#8BC540"/>
<path d="M84.9774 31.956C83.0528 31.956 81.4632 31.3231 80.2086 30.0573C78.954 28.7915 78.3267 27.2304 78.3267 25.3739C78.3267 23.5053 78.954 21.9442 80.2086 20.6904C81.4632 19.4246 83.0528 18.7917 84.9774 18.7917C86.1345 18.7917 87.2004 19.063 88.1748 19.6055C89.1615 20.1359 89.9289 20.8592 90.477 21.7754L88.3027 23.0231C87.986 22.4565 87.5353 22.0165 86.9507 21.7031C86.366 21.3776 85.7082 21.2148 84.9774 21.2148C83.7349 21.2148 82.73 21.6006 81.9626 22.3721C81.2074 23.1437 80.8298 24.1442 80.8298 25.3739C80.8298 26.5914 81.2074 27.586 81.9626 28.3575C82.73 29.1291 83.7349 29.5148 84.9774 29.5148C85.7082 29.5148 86.366 29.3581 86.9507 29.0447C87.5475 28.7192 87.9982 28.2792 88.3027 27.7246L90.477 28.9723C89.9289 29.8885 89.1676 30.6179 88.1931 31.1604C87.2186 31.6908 86.1467 31.956 84.9774 31.956Z" fill="#2A2936"/>
<path d="M100.409 22.6615V31.7028H98.052V24.8495H94.416V31.7028H92.059V22.6615H100.409Z" fill="#2A2936"/>
<path d="M107.885 22.4083C109.116 22.4083 110.163 22.8724 111.028 23.8007C111.905 24.7169 112.344 25.844 112.344 27.1821C112.344 28.5203 111.905 29.6535 111.028 30.5817C110.163 31.4979 109.116 31.956 107.885 31.956C106.606 31.956 105.62 31.516 104.925 30.636V35.3194H102.569V22.6615H104.925V23.7283C105.62 22.8483 106.606 22.4083 107.885 22.4083ZM105.638 29.0266C106.113 29.4967 106.716 29.7318 107.447 29.7318C108.178 29.7318 108.781 29.4967 109.256 29.0266C109.743 28.5444 109.987 27.9296 109.987 27.1821C109.987 26.4347 109.743 25.8259 109.256 25.3558C108.781 24.8736 108.178 24.6325 107.447 24.6325C106.716 24.6325 106.113 24.8736 105.638 25.3558C105.163 25.8259 104.925 26.4347 104.925 27.1821C104.925 27.9296 105.163 28.5444 105.638 29.0266Z" fill="#2A2936"/>
<path d="M121.789 30.5817C120.851 31.4979 119.706 31.956 118.354 31.956C117.002 31.956 115.857 31.4979 114.919 30.5817C113.994 29.6535 113.531 28.5203 113.531 27.1821C113.531 25.844 113.994 24.7169 114.919 23.8007C115.857 22.8724 117.002 22.4083 118.354 22.4083C119.706 22.4083 120.851 22.8724 121.789 23.8007C122.727 24.7169 123.196 25.844 123.196 27.1821C123.196 28.5203 122.727 29.6535 121.789 30.5817ZM116.582 28.9723C117.057 29.4425 117.648 29.6776 118.354 29.6776C119.061 29.6776 119.652 29.4425 120.127 28.9723C120.602 28.5022 120.839 27.9055 120.839 27.1821C120.839 26.4588 120.602 25.8621 120.127 25.392C119.652 24.9218 119.061 24.6867 118.354 24.6867C117.648 24.6867 117.057 24.9218 116.582 25.392C116.119 25.8621 115.888 26.4588 115.888 27.1821C115.888 27.9055 116.119 28.5022 116.582 28.9723Z" fill="#2A2936"/>
<path d="M129.203 31.956C127.826 31.956 126.675 31.4979 125.75 30.5817C124.836 29.6655 124.379 28.5323 124.379 27.1821C124.379 25.832 124.836 24.6988 125.75 23.7826C126.675 22.8664 127.826 22.4083 129.203 22.4083C130.092 22.4083 130.902 22.6193 131.633 23.0412C132.364 23.4631 132.918 24.0297 133.296 24.741L131.268 25.9164C131.085 25.5426 130.805 25.2473 130.427 25.0303C130.062 24.8133 129.647 24.7048 129.185 24.7048C128.478 24.7048 127.893 24.9399 127.431 25.41C126.968 25.8681 126.736 26.4588 126.736 27.1821C126.736 27.8934 126.968 28.4841 127.431 28.9543C127.893 29.4124 128.478 29.6414 129.185 29.6414C129.66 29.6414 130.08 29.5389 130.445 29.334C130.823 29.117 131.103 28.8216 131.286 28.4479L133.332 29.6052C132.93 30.3165 132.364 30.8891 131.633 31.3231C130.902 31.745 130.092 31.956 129.203 31.956Z" fill="#2A2936"/>
<path d="M141.246 22.6615H143V31.7028H140.698V26.5673L136.404 31.7028H134.65V22.6615H136.952V27.797L141.246 22.6615Z" fill="#2A2936"/>
</svg>
