<svg width="24" height="24" viewBox="0 0 24 24" fill="none" xmlns="http://www.w3.org/2000/svg">
<g clip-path="url(#clip0_4318_74204)">
<circle cx="12" cy="12" r="12" fill="#686D82"/>
<path fill-rule="evenodd" clip-rule="evenodd" d="M12.1683 8.21813C12.6503 7.75213 13.296 7.49427 13.9662 7.5001C14.6364 7.50593 15.2775 7.77497 15.7514 8.2493C16.2253 8.72362 16.4941 9.36526 16.4999 10.036C16.5057 10.7068 16.2481 11.353 15.7825 11.8355L15.7753 11.8428L14.5957 13.0235C14.3366 13.2829 14.0247 13.4836 13.6813 13.6118C13.3379 13.74 12.971 13.7928 12.6054 13.7666C12.2398 13.7404 11.8841 13.6358 11.5625 13.4599C11.2408 13.284 10.9607 13.0409 10.7412 12.7472C10.5461 12.4861 10.5994 12.1161 10.8602 11.9208C11.1211 11.7255 11.4907 11.7789 11.6859 12.04C11.8041 12.1981 11.9549 12.329 12.1281 12.4237C12.3013 12.5184 12.4928 12.5747 12.6897 12.5889C12.8865 12.603 13.0841 12.5745 13.269 12.5055C13.4539 12.4365 13.6218 12.3284 13.7614 12.1887L14.9372 11.0119C15.1859 10.7524 15.3234 10.4059 15.3202 10.0463C15.3171 9.68511 15.1724 9.33961 14.9172 9.0842C14.662 8.8288 14.3168 8.68393 13.9559 8.68079C13.5964 8.67766 13.2499 8.8155 12.9906 9.06473L12.3176 9.73446C12.0865 9.96434 11.7131 9.96325 11.4834 9.73203C11.2537 9.50081 11.2548 9.12701 11.4858 8.89713L12.1622 8.22411L12.1683 8.21813ZM10.3187 10.3882C10.6621 10.26 11.029 10.2072 11.3946 10.2334C11.7602 10.2596 12.1159 10.3642 12.4375 10.5401C12.7592 10.716 13.0393 10.9591 13.2588 11.2528C13.4539 11.5139 13.4006 11.8839 13.1398 12.0792C12.8789 12.2745 12.5093 12.2211 12.3141 11.96C12.1959 11.8019 12.0451 11.671 11.8719 11.5763C11.6987 11.4816 11.5072 11.4253 11.3103 11.4111C11.1135 11.397 10.9159 11.4255 10.731 11.4945C10.5461 11.5635 10.3782 11.6716 10.2386 11.8113L9.06281 12.9881C8.81415 13.2476 8.67663 13.5941 8.67975 13.9537C8.68289 14.3149 8.82764 14.6604 9.08282 14.9158C9.338 15.1712 9.6832 15.3161 10.0441 15.3192C10.4034 15.3223 10.7496 15.1847 11.0088 14.9358L11.6773 14.2668C11.9076 14.0362 12.2811 14.0362 12.5115 14.2668C12.7418 14.4973 12.7418 14.8711 12.5115 15.1017L11.839 15.7747L11.8317 15.7819C11.3497 16.2479 10.704 16.5057 10.0338 16.4999C9.36363 16.4941 8.72255 16.225 8.24864 15.7507C7.77473 15.2764 7.50592 14.6347 7.5001 13.964C7.49427 13.2932 7.75191 12.647 8.21751 12.1645L8.22469 12.1572L9.40432 10.9765C9.40434 10.9765 9.40429 10.9765 9.40432 10.9765C9.66343 10.7171 9.97531 10.5164 10.3187 10.3882Z" fill="black"/>
</g>
<defs>
<clipPath id="clip0_4318_74204">
<rect width="24" height="24" fill="white"/>
</clipPath>
</defs>
</svg>
