<svg width="24" height="24" viewBox="0 0 24 24" fill="none" xmlns="http://www.w3.org/2000/svg">
<circle cx="12" cy="12" r="12" fill="#686D82"/>
<path d="M15.0818 12.3911C15.1818 12.2003 15.5357 11.6535 15.8022 11.2466C16.6018 10.0428 16.7475 9.78842 16.7475 9.63583C16.7475 9.51877 16.6543 9.42388 16.5393 9.42388H14.6654C14.5651 9.42426 14.4794 9.4973 14.4614 9.59768C14.3572 10.1826 13.008 11.8612 12.7957 11.9672C12.7082 11.9672 12.5875 11.7468 12.5875 11.3314V9.54257C12.6106 9.40269 12.5742 9.25939 12.4875 9.14836C12.3459 9 12.1336 9 11.5422 9C10.4679 9 10.0848 9.32639 10.0848 9.63583C10.0801 9.68968 10.0977 9.74307 10.1332 9.78325C10.1687 9.82343 10.2191 9.8468 10.2722 9.84777C10.2722 9.84777 10.5012 10.0004 10.5012 10.9075C10.513 11.2616 10.4949 11.6162 10.4471 11.9672C9.9182 11.8697 9.1853 10.526 8.83551 9.55953C8.80284 9.47273 8.71842 9.41773 8.6273 9.42388H6.96162C6.89924 9.42284 6.8397 9.45033 6.79937 9.49877C6.75904 9.54722 6.74217 9.61151 6.75341 9.67398C6.9866 10.9541 9.63087 14.9344 11.334 14.9344H12.1669C12.6083 14.9344 12.6416 14.4469 12.6666 14.1248C12.6916 13.8026 12.7124 13.6627 12.7915 13.6627C13.0497 13.6627 13.5785 14.129 13.9242 14.4342C14.2698 14.7394 14.4947 14.9344 14.6654 14.9344H15.7064C16.2436 14.9344 16.7475 14.9344 16.7475 14.5105C16.7475 14.3494 16.6101 14.1629 15.8189 13.2388C15.5565 12.9464 15.2026 12.5437 15.0818 12.3911Z" fill="black"/>
</svg>
