<svg width="24" height="24" viewBox="0 0 24 24" fill="none" xmlns="http://www.w3.org/2000/svg">
<circle cx="12" cy="12" r="12" fill="#686D82"/>
<path d="M7.36664 11.9107L7.37401 11.9079L7.38129 11.9048C10.0663 10.7756 11.8525 10.0329 12.7437 9.67506C14.0241 9.16097 14.7858 8.86396 15.2692 8.69462C15.7515 8.52568 15.9085 8.5023 15.9958 8.5001C15.9966 8.50915 15.9973 8.51883 15.9979 8.52902C16.0009 8.57816 16.0005 8.61956 15.998 8.645C15.862 10.0242 15.2669 13.4135 14.9615 14.9896C14.9051 15.2802 14.8312 15.4181 14.787 15.4748C14.7772 15.4874 14.77 15.4948 14.7654 15.499C14.6443 15.5066 14.5165 15.4709 14.334 15.3674C14.2377 15.3128 14.1371 15.2457 14.0183 15.1643C13.9997 15.1515 13.9806 15.1383 13.961 15.1248C13.8607 15.0558 13.7484 14.9785 13.6317 14.9047C13.2304 14.6507 12.9163 14.4447 12.6026 14.2385L12.5606 14.2109C12.2607 14.0137 11.957 13.8141 11.5778 13.5728C11.4819 13.5118 11.4179 13.4618 11.3763 13.4231C11.3734 13.4204 11.3706 13.4177 11.3679 13.4152C11.3912 13.3868 11.4269 13.3476 11.4807 13.2947C11.526 13.2503 11.575 13.2046 11.632 13.1516C11.6392 13.1449 11.6465 13.1381 11.6539 13.1311C11.7181 13.0714 11.7899 13.0041 11.8617 12.9321C11.861 12.9328 11.8697 12.9244 11.896 12.9003C11.9193 12.879 11.9504 12.8507 11.9888 12.816C12.0581 12.7535 12.1483 12.6725 12.2538 12.5778L12.2889 12.5463C12.5296 12.3304 12.8395 12.052 13.1469 11.7717C13.4536 11.4921 13.7613 11.2075 13.9964 10.9795C14.1133 10.8662 14.2173 10.7619 14.2958 10.6769C14.3344 10.6351 14.373 10.5914 14.4054 10.5496C14.4214 10.5289 14.4411 10.5022 14.4599 10.4717C14.4732 10.45 14.5105 10.3884 14.5308 10.3047C14.55 10.2258 14.5541 10.132 14.5401 10.0408C14.5259 9.9482 14.4807 9.78131 14.3277 9.65005C14.1795 9.52291 14.0141 9.49935 13.9119 9.49858C13.8194 9.49788 13.7377 9.51592 13.7082 9.52244C13.7068 9.52274 13.7056 9.52302 13.7045 9.52327C13.6288 9.53985 13.5634 9.57455 13.5555 9.57872C13.5551 9.57892 13.5549 9.57904 13.5548 9.5791C13.53 9.59175 13.5029 9.60678 13.476 9.62217C13.4212 9.65347 13.349 9.69673 13.2616 9.75036C13.0857 9.85821 12.8349 10.0161 12.5105 10.2231C11.8611 10.6374 10.9088 11.2536 9.65446 12.071L9.65445 12.071L9.65118 12.0731C9.33011 12.286 9.09771 12.3494 8.93928 12.3461C8.83352 12.3439 8.63884 12.311 8.38382 12.2493C8.13998 12.1902 7.87558 12.1136 7.64719 12.0419C7.56236 12.0153 7.49699 11.9955 7.4361 11.9771C7.391 11.9635 7.34836 11.9506 7.30209 11.9362C7.32263 11.9279 7.34413 11.9194 7.36664 11.9107ZM16.0624 8.51098C16.0624 8.51099 16.0625 8.511 16.0625 8.51101C16.0626 8.51105 16.0626 8.51107 16.0626 8.51107C16.0626 8.51107 16.0625 8.51104 16.0624 8.51098ZM14.7594 15.5037C14.7594 15.5036 14.76 15.5031 14.7613 15.5025C14.76 15.5034 14.7594 15.5037 14.7594 15.5037ZM14.0092 10.4699C14.0205 10.4642 14.0183 10.466 14.0068 10.4711C14.0078 10.4706 14.0086 10.4702 14.0092 10.4699Z" fill="black" stroke="black"/>
</svg>
