<svg width="48" height="48" viewBox="0 0 48 48" fill="none" xmlns="http://www.w3.org/2000/svg">
<path d="M47.9976 28.2598H0.0820312V31.0436H47.9976V28.2598Z" fill="black"/>
<path d="M0.0820312 47.9998H3.03458V44.7942H19.8219V33.8276H0.0820312V47.9998ZM3.03458 36.6114H16.8694V42.0103H3.03458V36.6114Z" fill="black"/>
<path d="M22.6094 44.7944H33.7447V48H36.7816V44.7944H47.9169V33.8279H22.6094V44.7944ZM36.7816 36.6117H45.0487V42.0106H36.7816V36.6117ZM25.5619 36.6117H33.7447V42.0106H25.5619V36.6117Z" fill="black"/>
<path d="M25.4759 0H14.1719V25.3917H25.4759V0ZM22.5234 22.6079H17.1244V2.86817H22.5234V22.6079Z" fill="black"/>
<path d="M31.2963 8.52014L36.6952 2.86817V25.4761H39.6478V8.52014L44.9624 2.86817V25.4761H47.9149V0H43.7814L39.6478 4.38661V0H35.5142L28.3438 7.42349V25.4761H31.2963V8.52014Z" fill="black"/>
<path d="M8.35149 25.4761H11.304V22.6923V0H7.17047L0 7.42349V22.6079V25.3917H2.95255H8.35149V25.4761ZM3.0369 8.52014L8.43584 2.86817V22.6079H3.0369V8.52014Z" fill="black"/>
</svg>
