<svg xmlns="http://www.w3.org/2000/svg">
    <symbol id="ico-fb" viewBox="0 0 28 28">
        <path fill-rule="evenodd" clip-rule="evenodd" d="M15.599 24V14.8785H18.6026L19.0006 11.1288H15.599L15.6041 9.25209C15.6041 8.27412 15.697 7.7501 17.1016 7.7501H18.9794V4H15.9753C12.3669 4 11.0969 5.81899 11.0969 8.87797V11.1293H9V14.8789H11.0969V24H15.599Z" />
    </symbol>
    <symbol id="ico-insta" viewBox="0 0 28 28">
        <path fill-rule="evenodd" clip-rule="evenodd" d="M18 6H10C7.79086 6 6 7.79086 6 10V18C6 20.2091 7.79086 22 10 22H18C20.2091 22 22 20.2091 22 18V10C22 7.79086 20.2091 6 18 6ZM10 3C6.13401 3 3 6.13401 3 10V18C3 21.866 6.13401 25 10 25H18C21.866 25 25 21.866 25 18V10C25 6.13401 21.866 3 18 3H10ZM14 16.5C15.3807 16.5 16.5 15.3807 16.5 14C16.5 12.6193 15.3807 11.5 14 11.5C12.6193 11.5 11.5 12.6193 11.5 14C11.5 15.3807 12.6193 16.5 14 16.5ZM14 19.5C17.0376 19.5 19.5 17.0376 19.5 14C19.5 10.9624 17.0376 8.5 14 8.5C10.9624 8.5 8.5 10.9624 8.5 14C8.5 17.0376 10.9624 19.5 14 19.5ZM19.5 9.875C20.2594 9.875 20.875 9.25939 20.875 8.5C20.875 7.74061 20.2594 7.125 19.5 7.125C18.7406 7.125 18.125 7.74061 18.125 8.5C18.125 9.25939 18.7406 9.875 19.5 9.875Z" />
    </symbol>
    <symbol id="ico-vk" viewBox="0 0 28 28">
        <path fill-rule="evenodd" clip-rule="evenodd" d="M15.0789 20.9457C15.0789 20.9457 15.476 20.9 15.6793 20.6737C15.8655 20.4664 15.859 20.0752 15.859 20.0752C15.859 20.0752 15.8343 18.2485 16.6531 17.9788C17.4601 17.7136 18.4964 19.7453 19.596 20.5266C20.4267 21.1173 21.0573 20.988 21.0573 20.988L23.9959 20.9457C23.9959 20.9457 25.5325 20.8476 24.804 19.596C24.7437 19.4935 24.379 18.6698 22.6197 16.978C20.7764 15.207 21.0239 15.4935 23.2427 12.4296C24.5942 10.5639 25.1343 9.42491 24.9654 8.93787C24.8051 8.472 23.8108 8.59571 23.8108 8.59571L20.5031 8.61689C20.5031 8.61689 20.2578 8.58234 20.076 8.6949C19.8984 8.80524 19.7833 9.06269 19.7833 9.06269C19.7833 9.06269 19.2603 10.506 18.562 11.7342C17.0889 14.3243 16.5003 14.4614 16.2593 14.3009C15.6987 13.9253 15.8386 12.7941 15.8386 11.9905C15.8386 9.47952 16.2066 8.43299 15.123 8.16216C14.7636 8.07189 14.4989 8.01282 13.5789 8.00279C12.3985 7.99053 11.4 8.00725 10.834 8.29368C10.4574 8.48426 10.1669 8.91 10.3444 8.93452C10.5629 8.96462 11.0578 9.07272 11.3204 9.44274C11.6593 9.92087 11.6475 10.993 11.6475 10.993C11.6475 10.993 11.8422 13.9487 11.1923 14.3154C10.7469 14.5673 10.1357 14.0535 8.82185 11.703C8.14934 10.4993 7.64146 9.16857 7.64146 9.16857C7.64146 9.16857 7.54354 8.92004 7.36815 8.78629C7.15617 8.62469 6.86027 8.57454 6.86027 8.57454L3.71721 8.59571C3.71721 8.59571 3.24484 8.60909 3.0716 8.82196C2.91773 9.01031 3.05976 9.40151 3.05976 9.40151C3.05976 9.40151 5.52062 15.3653 8.30751 18.3711C10.8631 21.1262 13.764 20.9457 13.764 20.9457H15.0789Z" />
    </symbol>
    <symbol id="ico-tw" viewBox="0 0 28 28">
        <path fill-rule="evenodd" clip-rule="evenodd" d="M14.2256 10.2563L14.2668 10.9483L13.5803 10.8636C11.0817 10.5387 8.89891 9.4371 7.04555 7.58693L6.13947 6.66891L5.90608 7.34684C5.41186 8.85804 5.72761 10.454 6.75725 11.5274C7.3064 12.1205 7.18284 12.2053 6.23557 11.8522C5.90608 11.7392 5.61778 11.6545 5.59033 11.6968C5.49423 11.7957 5.82371 13.0809 6.08456 13.5894C6.4415 14.2955 7.16911 14.9876 7.96537 15.3972L8.63807 15.722L7.84181 15.7361C7.07301 15.7361 7.04555 15.7502 7.12793 16.0468C7.4025 16.9649 8.48705 17.9394 9.69516 18.3631L10.5463 18.6597L9.80499 19.1116C8.70671 19.7613 7.41622 20.1285 6.12574 20.1567C5.50796 20.1709 5 20.2274 5 20.2697C5 20.411 6.67488 21.2019 7.64961 21.5126C10.5738 22.4306 14.0471 22.0351 16.6555 20.4674C18.5089 19.3517 20.3622 17.1343 21.2271 14.9876C21.6939 13.8436 22.1607 11.7533 22.1607 10.7506C22.1607 10.1009 22.2019 10.0162 22.9707 9.23937C23.4237 8.78742 23.8493 8.2931 23.9317 8.15187C24.069 7.88352 24.0552 7.88352 23.3551 8.12362C22.1881 8.54732 22.0234 8.49083 22.6 7.85528C23.0256 7.40333 23.5335 6.58417 23.5335 6.34408C23.5335 6.30171 23.3276 6.37232 23.0942 6.49943C22.8471 6.64067 22.298 6.85252 21.8861 6.97963L21.1448 7.21973L20.4721 6.75365C20.1014 6.49943 19.5797 6.21697 19.3051 6.13223C18.605 5.9345 17.5342 5.96275 16.9027 6.18872C15.1866 6.82427 14.102 8.46258 14.2256 10.2563Z" />
    </symbol>
    <symbol id="ico-dzen" viewBox="0 0 28 28">
        <path fill-rule="evenodd" clip-rule="evenodd" d="M13.6452 6.54839V3C11.9419 3 4.06452 4.06452 3 13.6452H6.19355C8.32258 13.6452 10.2651 13.2563 11.871 11.5161C13.268 10.0022 13.6452 8.67742 13.6452 6.54839Z"/>
        <path fill-rule="evenodd" clip-rule="evenodd" d="M14.3548 21.4516V25C16.0581 25 23.9355 23.9355 25 14.3548H21.8065C19.6774 14.3548 17.7349 14.7437 16.129 16.4839C14.732 17.9978 14.3548 19.3226 14.3548 21.4516Z"/>
        <path fill-rule="evenodd" clip-rule="evenodd" d="M6.54839 14.3548H3C3 16.0581 4.06452 23.9355 13.6452 25V21.8065C13.6452 19.6774 13.2563 17.7349 11.5161 16.129C10.0022 14.732 8.67742 14.3548 6.54839 14.3548Z"/>
        <path fill-rule="evenodd" clip-rule="evenodd" d="M21.4516 13.6452H25C25 11.9419 23.9355 4.06452 14.3548 3V6.19355C14.3548 8.32258 14.7437 10.2651 16.4839 11.871C17.9978 13.268 19.3226 13.6452 21.4516 13.6452Z"/>
    </symbol>
    <symbol id="ico-tg" viewBox="0 0 28 28">
        <path fill-rule="evenodd" clip-rule="evenodd" d="M11.7402 17.3677L11.3928 22.2536C11.8899 22.2536 12.1051 22.0401 12.3632 21.7838L14.6934 19.5569L19.5218 23.0927C20.4073 23.5862 21.0312 23.3264 21.2701 22.2781L24.4394 7.42771L24.4403 7.42683C24.7212 6.11784 23.9669 5.60597 23.1041 5.92709L4.47493 13.0592C3.20352 13.5527 3.22277 14.2614 4.2588 14.5825L9.02154 16.0639L20.0844 9.14182C20.6051 8.79707 21.0785 8.98782 20.6891 9.33257L11.7402 17.3677Z"/>
    </symbol>
    <symbol id="ico-yandexq" viewBox="0 0 28 28">
        <path fill-rule="evenodd" clip-rule="evenodd" d="M13.0759 2.01968C10.8848 2.19939 8.81936 2.95275 7.02267 4.22754C5.74117 5.1368 4.54968 6.42416 3.71927 7.7967C3.42634 8.28091 2.97849 9.19875 2.77954 9.72275C1.69621 12.5758 1.7431 15.7902 2.90898 18.5936C3.70185 20.5002 4.90294 22.0919 6.5486 23.4171C8.24226 24.781 10.3762 25.6653 12.6378 25.9403C13.2906 26.0197 14.7078 26.0199 15.3637 25.9407C18.5707 25.5535 21.3844 23.9867 23.4102 21.4601C24.331 20.3115 25.1012 18.8263 25.5211 17.3894C25.6856 16.8265 25.8587 15.9735 25.9318 15.3652C26.0109 14.7079 26.0106 13.2897 25.9312 12.6374C25.6427 10.2662 24.7187 8.11033 23.2205 6.31264C21.252 3.95067 18.4445 2.42729 15.3961 2.06703C14.873 2.0052 13.5752 1.9787 13.0759 2.01968ZM12.4107 11.8132V16.4771L12.6575 16.8161C12.7933 17.0025 12.8992 17.159 12.8928 17.1639C12.8864 17.1688 12.7165 17.1608 12.5151 17.1461C10.6552 17.011 8.84081 15.8915 8.12881 14.4397C7.75709 13.6817 7.69453 13.314 7.71364 11.9999C7.72694 11.0849 7.73256 11.0113 7.81248 10.7009C8.08718 9.63419 8.67878 8.82631 9.69484 8.13027C10.4604 7.60585 11.4699 7.23539 12.3539 7.15449C12.4077 7.14956 12.4107 7.39107 12.4107 11.8132ZM14.8491 7.18323C16.0186 7.30134 17.1195 7.77016 18.0246 8.53544C18.8143 9.20317 19.2966 10.0278 19.4668 11.0015C19.5108 11.2532 19.5172 11.8963 19.5173 16.0816L19.5174 20.8735L19.8089 21.2693L20.1004 21.6651H18.4836C16.9926 21.6651 16.8477 21.6602 16.6219 21.6024C15.7612 21.3821 15.082 20.6955 14.8766 19.8381C14.814 19.5767 14.8125 19.434 14.8123 13.714L14.812 7.85752L14.741 7.75506C14.7019 7.69872 14.5923 7.5484 14.4976 7.42104C14.4028 7.29364 14.3253 7.18038 14.3253 7.16937C14.3253 7.14073 14.4648 7.14443 14.8491 7.18323Z"/>
    </symbol>
    <symbol id="external-link" viewBox="0 0 12 12">
        <path d="M10.5 10C10.5 10.2761 10.2761 10.5 10 10.5L2 10.5C1.72386 10.5 1.5 10.2761 1.5 10L1.5 2C1.5 1.72386 1.72386 1.5 2 1.5L5.25 1.5C5.66421 1.5 6 1.16421 6 0.75C6 0.335786 5.66421 0 5.25 0L1 0C0.447715 0 0 0.447715 0 1L0 11C0 11.5523 0.447715 12 1 12L11 12C11.5523 12 12 11.5523 12 11L12 6.75C12 6.33579 11.6642 6 11.25 6C10.8358 6 10.5 6.33579 10.5 6.75L10.5 10Z"/>
        <path fill-rule="evenodd" clip-rule="evenodd" d="M9.43934 1.5H8.25C7.83579 1.5 7.5 1.16421 7.5 0.75C7.5 0.335786 7.83579 0 8.25 0L11 0C11.5523 0 12 0.447715 12 1V3.75C12 4.16421 11.6642 4.5 11.25 4.5C10.8358 4.5 10.5 4.16421 10.5 3.75V2.56066L7.68211 5.43222C7.37525 5.74493 6.87224 5.7473 6.56245 5.4375C6.25265 5.12771 6.25502 4.62469 6.56774 4.31784L9.43934 1.5Z"/>
    </symbol>
    <symbol id="ico-rss" viewBox="0 0 28 28">
        <path fill-rule="evenodd" clip-rule="evenodd" d="M25 23.9084V4.10451C25 3.49371 24.506 3 23.9082 3H4.10434C3.49358 3 3 3.49371 3 4.10451V23.9084C3 24.5067 3.49358 25 4.10434 25H23.9082C24.506 25 25 24.5067 25 23.9084ZM6.74215 6.74241C14.5911 6.74241 20.9715 12.9541 21.2575 20.7252V21.258H18.3597C18.3466 14.8513 13.149 9.66639 6.74215 9.66639V6.74241ZM6.74215 11.5506C12.109 11.5506 16.4624 15.8908 16.4754 21.258H13.6425C13.6425 17.4506 10.5497 14.3705 6.74215 14.3705V11.5506ZM8.83447 17.2425C9.92583 17.2425 10.8096 18.126 10.8096 19.2175C10.8096 20.3091 9.92587 21.1926 8.83447 21.1926C7.74311 21.1926 6.85937 20.3091 6.85937 19.2175C6.85937 18.126 7.74311 17.2425 8.83447 17.2425Z"/>
    </symbol>
</svg>
